<svg xmlns="http://www.w3.org/2000/svg" viewBox="0 0 250 150"><defs><style>.cls-1{fill:#2b2b2b;}.cls-2{fill:bisque;}.cls-3{fill:#cfb9ff;}.cls-4,.cls-8{fill:#6d00b9;}.cls-4{opacity:0.28;}.cls-5{fill:none;stroke:#000;stroke-miterlimit:10;stroke-width:0.25px;opacity:0.5;}.cls-6{fill:#ff931d;}.cls-7{fill:#81ff73;}.cls-9{opacity:0.54;}.cls-10{fill:#6cdcff;}.cls-11{fill:#ffce78;}.cls-12{fill:#ff7f5c;}.cls-13{fill:#ff2c3c;opacity:0.68;}.cls-14{fill:#a71fff;}.cls-15{fill:#fcff76;}.cls-16{fill:#a4ffe5;}</style></defs><g id="Layer_2" data-name="Layer 2"><g id="Layer_1-2" data-name="Layer 1"><rect class="cls-1" width="250" height="150"/><rect class="cls-2" x="185" y="45" width="30" height="60" rx="4"/><rect class="cls-3" x="185" y="52" width="30" height="5"/><rect class="cls-4" x="209" y="61" width="6" height="2"/><line class="cls-5" x1="198.7" y1="102" x2="198.7" y2="104.88"/><line class="cls-5" x1="206.5" y1="102" x2="206.5" y2="104.88"/><line class="cls-5" x1="193.5" y1="102" x2="193.5" y2="104.88"/><line class="cls-5" x1="203.9" y1="102" x2="203.9" y2="104.88"/><line class="cls-5" x1="196.1" y1="102" x2="196.1" y2="104.88"/><line class="cls-5" x1="201.3" y1="102" x2="201.3" y2="104.88"/><rect class="cls-6" x="135" y="45" width="30" height="60" rx="4"/><rect class="cls-7" x="135" y="52" width="30" height="5"/><rect class="cls-8" x="159" y="61" width="6" height="2"/><line class="cls-5" x1="148.7" y1="102" x2="148.7" y2="104.88"/><line class="cls-5" x1="156.5" y1="102" x2="156.5" y2="104.88"/><line class="cls-5" x1="143.5" y1="102" x2="143.5" y2="104.88"/><line class="cls-5" x1="153.9" y1="102" x2="153.9" y2="104.88"/><line class="cls-5" x1="146.1" y1="102" x2="146.1" y2="104.88"/><line class="cls-5" x1="151.3" y1="102" x2="151.3" y2="104.88"/><path class="cls-9" d="M140,65.42V91.57A3.42,3.42,0,0,1,136.57,95H135V62h1.57A3.42,3.42,0,0,1,140,65.42Z"/><rect class="cls-10" x="85" y="45" width="30" height="60" rx="4"/><rect class="cls-11" x="85" y="52" width="30" height="5"/><rect class="cls-12" x="109" y="61" width="6" height="2"/><line class="cls-5" x1="98.7" y1="102" x2="98.7" y2="104.88"/><line class="cls-5" x1="106.5" y1="102" x2="106.5" y2="104.88"/><line class="cls-5" x1="93.5" y1="102" x2="93.5" y2="104.88"/><line class="cls-5" x1="103.9" y1="102" x2="103.9" y2="104.88"/><line class="cls-5" x1="96.1" y1="102" x2="96.1" y2="104.88"/><line class="cls-5" x1="101.3" y1="102" x2="101.3" y2="104.88"/><circle class="cls-13" cx="103.5" cy="72.5" r="5.5"/><rect class="cls-14" x="35" y="45" width="30" height="60" rx="4"/><rect class="cls-15" x="35" y="52" width="30" height="5"/><rect class="cls-16" x="59" y="61" width="6" height="2"/><line class="cls-5" x1="48.7" y1="102" x2="48.7" y2="104.88"/><line class="cls-5" x1="56.5" y1="102" x2="56.5" y2="104.88"/><line class="cls-5" x1="43.5" y1="102" x2="43.5" y2="104.88"/><line class="cls-5" x1="53.9" y1="102" x2="53.9" y2="104.88"/><line class="cls-5" x1="46.1" y1="102" x2="46.1" y2="104.88"/><line class="cls-5" x1="51.3" y1="102" x2="51.3" y2="104.88"/><rect x="48" y="66" width="3" height="8"/><rect x="48" y="70" width="17" height="8"/></g></g></svg>