<?xml version="1.0" encoding="iso-8859-1"?>
<!-- Generator: Adobe Illustrator 18.0.0, SVG Export Plug-In . SVG Version: 6.00 Build 0)  -->
<!DOCTYPE svg PUBLIC "-//W3C//DTD SVG 1.1//EN" "http://www.w3.org/Graphics/SVG/1.1/DTD/svg11.dtd">
<svg version="1.1" id="Capa_1" xmlns="http://www.w3.org/2000/svg" xmlns:xlink="http://www.w3.org/1999/xlink" x="0px" y="0px"
	 viewBox="0 0 250 250" style="enable-background:new 0 0 250 250;" xml:space="preserve">
<path d="M188.82,68.018c-12.939-10.682-28.972-17.749-46.32-20.598V0h-35v47.42c-17.348,2.849-33.381,9.916-46.32,20.598
	C43.008,83.019,33,103.255,33,125s10.008,41.981,28.18,56.982c12.939,10.682,28.972,17.749,46.32,20.598V250h35v-47.42
	c17.348-2.849,33.381-9.916,46.32-20.598C206.992,166.981,217,146.745,217,125S206.992,83.019,188.82,68.018z M107.5,166.869
	C84.607,161.154,68,144.55,68,125s16.607-36.154,39.5-41.869V166.869z M142.5,166.869V83.131C165.393,88.846,182,105.45,182,125
	S165.393,161.154,142.5,166.869z"/>
<g>
</g>
<g>
</g>
<g>
</g>
<g>
</g>
<g>
</g>
<g>
</g>
<g>
</g>
<g>
</g>
<g>
</g>
<g>
</g>
<g>
</g>
<g>
</g>
<g>
</g>
<g>
</g>
<g>
</g>
</svg>
