<?xml version="1.0" encoding="utf-8"?>
<!-- Generator: Adobe Illustrator 24.2.0, SVG Export Plug-In . SVG Version: 6.00 Build 0)  -->
<svg version="1.1" xmlns="http://www.w3.org/2000/svg" xmlns:xlink="http://www.w3.org/1999/xlink" x="0px" y="0px"
	 viewBox="0 0 1400 3183" style="enable-background:new 0 0 1400 3183;" xml:space="preserve">
<style type="text/css">
	.st0{fill:none;stroke:#383838;stroke-width:7;stroke-miterlimit:10;}
	.st1{fill:#FFCC88;}
	.st2{fill:none;stroke:#35D324;stroke-width:5.36;stroke-miterlimit:10;}
	.st3{fill:none;stroke:#49B900;stroke-width:5.36;stroke-miterlimit:10;}
	.st4{fill:#49B900;}
	.st5{fill:none;stroke:#4DB7FF;stroke-width:8.04;stroke-miterlimit:10;}
	.st6{fill:none;stroke:#FFDF8B;stroke-width:8.04;stroke-miterlimit:10;}
	.st7{fill:none;stroke:#007CE7;stroke-width:25.46;stroke-miterlimit:10;}
	.st8{fill:none;stroke:#5200D0;stroke-width:8.04;stroke-miterlimit:10;}
	.st9{fill:none;stroke:#00125C;stroke-width:2.68;stroke-miterlimit:10;}
	.st10{fill:none;stroke:#FFAB03;stroke-width:29.48;stroke-miterlimit:10;}
	.st11{fill:none;stroke:#F7BD61;stroke-width:21.44;stroke-miterlimit:10;}
	.st12{fill:none;stroke:#D3A35E;stroke-width:13.4;stroke-miterlimit:10;}
	.st13{fill:none;stroke:#000000;stroke-width:0.335;stroke-miterlimit:10;}
	.st14{fill:none;stroke:#CC7E48;stroke-width:38.86;stroke-miterlimit:10;}
	.st15{fill:none;stroke:#D89466;stroke-width:22.78;stroke-miterlimit:10;}
	.st16{fill:none;stroke:#F4A876;stroke-width:22.78;stroke-miterlimit:10;}
	.st17{fill:none;stroke:#C68C6F;stroke-width:12.06;stroke-miterlimit:10;}
	.st18{fill:#C68C6F;}
	.st19{fill:none;stroke:#C68C6F;stroke-width:1.34;stroke-miterlimit:10;}
	.st20{fill:#35D324;}
	.st21{fill:#56ED5D;}
	.st22{fill:none;stroke:#FFCC88;stroke-width:1.34;stroke-miterlimit:10;}
	.st23{fill:none;stroke:#000000;stroke-width:1.34;stroke-miterlimit:10;}
</style>
<g id="Layer_1">
	<path class="st0" d="M1227.5,0.5v685.21c0,51.8-41.99,93.79-93.79,93.79H269.43c-71.21,0-128.93,57.72-128.93,128.93v442.14
		c0,122.02,98.91,220.93,220.93,220.93h641.21c124.19,0,224.86,100.67,224.86,224.86v325.5c0,93.69-75.95,169.64-169.64,169.64
		H928.07c-125.68,0-227.57,101.89-227.57,227.57v612.43"/>
</g>
<g id="Layer_3">
	<g>
		<g>
			<path class="st1" d="M91.28,1048.84c11.26-11.02,25.67-18.46,41.15-21.35c-0.52-1.22-1.03-2.45-1.55-3.67
				c-3.55,1.75-7.09,3.5-10.64,5.25c0.68,1.16,1.35,2.31,2.03,3.47c3.26-2.19,6.52-4.39,9.78-6.58c-0.92-0.92-1.83-1.83-2.75-2.75
				c-1.5,2.69-3.87,4.74-6.8,5.73c0.52,1.22,1.03,2.45,1.55,3.67c5.82-2.72,11.8-5.1,17.91-7.1c3.02-0.99,6.08-1.9,9.15-2.71
				c2.39-0.63,5.75-2.02,8.08-0.63c-0.14-1.05-0.27-2.1-0.41-3.16c-7.34,6.09-16.33,9.91-25.75,11.22c0.65,1.12,1.3,2.24,1.96,3.36
				c5.48-7.01,13.73-11.63,22.63-12.33c-0.58-1.01-1.16-2.02-1.74-3.02c-2.42,5.39-7.12,9.58-12.87,11.08
				c-1.93,0.5-5.75,0.6-4.46-2.53c0.58-1.4,2.05-2.26,3.31-2.97c1.21-0.68,2.89-1.89,4.37-1.7c1.17,0.15,1.25,1.06,0.58,1.9
				c-0.99,1.25-2.98,1.91-4.41,2.45c-1.57,0.58-3.2,1.03-4.84,1.34c-1.47,0.28-3.16,0.6-4.65,0.25c-3.14-0.73,2.39-3.85,3.24-4.35
				c2.87-1.66,6.11-3.13,9.39-3.76c1.11-0.21,2.88-0.36,3.12,1.1c0.24,1.49-1.14,2.76-2.21,3.55c-2.97,2.18-6.89,3.17-10.55,2.64
				c0.16,1.22,0.32,2.45,0.48,3.67c7.45-5.37,16.86-7.91,26-6.65c-0.16-1.22-0.32-2.45-0.48-3.67c-8.04,4.87-17.39,7.75-26.82,7.9
				c-0.63,0.01-1.76,0.15-2.22-0.41c-0.51-0.62,0.01-1.64,0.35-2.19c1.1-1.77,2.94-3.22,4.7-4.28c1.58-0.95,3.47-1.87,5.35-1.91
				c1.54-0.03,2.72,0.74,2.08,2.41c-0.71,1.85-3,2.69-4.67,3.41c-1.7,0.73-4.21,1.92-5.98,0.72c-1.69-1.15-0.27-3.39,0.81-4.4
				c0.8-0.74,1.74-1.31,2.65-1.88c1.02-0.64,2.06-1.33,3.24-1.65c1.6-0.44,3.46,0.26,2.73,2.22c-0.66,1.79-2.97,3.41-4.66,4.14
				c-1.35,0.58-3.47,0.68-3.8-1.15c-0.32-1.73,0.97-3.61,2.11-4.77c1.44-1.45,3.51-2.5,5.55-1.73c1.85,0.7,2.55,2.49,1.67,4.27
				c-1.01,2.05-3.52,3.3-5.64,3.84c-1.43,0.37-4.7,0.06-3.98-2.21c0.79-2.47-3.09-3.53-3.88-1.07c-1.02,3.21,1.37,6.48,4.47,7.27
				c3.32,0.84,7.09-0.68,9.72-2.67c2.67-2.02,4.52-5.47,3.4-8.85c-0.97-2.91-3.91-4.71-6.89-4.86c-5.98-0.31-12.8,7.21-9.96,13.13
				c1.5,3.12,5.4,3.83,8.39,2.65c2.98-1.18,6.38-3.74,7.37-6.91c1.03-3.3-0.81-6.64-4.23-7.31c-3.44-0.68-6.72,1.44-9.4,3.35
				c-2.72,1.95-5.19,5.02-4.29,8.59c0.91,3.6,4.76,4.93,8.1,4.33c1.64-0.29,3.18-0.99,4.7-1.65c1.63-0.71,3.26-1.51,4.52-2.79
				c2.2-2.23,3.05-6.08,0.76-8.57c-2.04-2.23-5.44-2.17-8.11-1.31c-3.16,1.02-6.1,2.86-8.41,5.24c-2.39,2.47-4.51,6.63-1.52,9.55
				c1.43,1.4,3.51,1.52,5.39,1.46c1.9-0.06,3.79-0.22,5.67-0.47c8.04-1.06,15.79-3.76,22.74-7.97c1.33-0.8,1.33-3.42-0.48-3.67
				c-10.21-1.41-20.7,1.01-29.09,7.06c-1.21,0.87-1.42,3.4,0.48,3.67c4.88,0.7,9.96-0.29,13.97-3.28c1.94-1.45,3.58-3.34,3.84-5.84
				c0.25-2.38-0.92-4.69-3.16-5.65c-2.05-0.88-4.37-0.5-6.45,0.1c-2.4,0.69-4.75,1.64-6.99,2.76c-3.44,1.74-10.3,5.39-7.65,10.28
				c2.26,4.16,8.89,2.65,12.46,1.69c4.08-1.1,11.23-3.52,10.34-9.02c-0.38-2.34-2.36-3.8-4.64-4.03c-2.48-0.25-4.83,1.12-6.91,2.31
				c-2.12,1.22-4.04,2.79-4.93,5.14c-0.81,2.15-0.47,4.74,1.23,6.36c3.65,3.49,9.97,1.07,13.68-1.05c4.23-2.42,7.71-6.19,9.71-10.63
				c0.57-1.26-0.06-3.16-1.74-3.02c-9.91,0.78-19.33,5.64-25.48,13.51c-1.28,1.64-0.09,3.64,1.96,3.36
				c10.14-1.41,19.66-5.73,27.53-12.25c1.02-0.85,0.62-2.55-0.41-3.16c-2.93-1.74-6.27-1.03-9.38-0.24
				c-3.39,0.85-6.75,1.82-10.07,2.89c-6.74,2.17-13.34,4.79-19.75,7.79c-2.05,0.96-0.6,4.4,1.55,3.67c3.91-1.32,7.18-3.96,9.2-7.58
				c0.93-1.67-1.01-3.92-2.75-2.75c-3.26,2.19-6.52,4.39-9.78,6.58c-2.15,1.45-0.3,4.62,2.03,3.47c3.55-1.75,7.09-3.5,10.64-5.25
				c2.16-1.07,0.56-4.07-1.55-3.67c-16.13,3.01-31.21,10.91-42.93,22.39C86.59,1047.81,89.43,1050.65,91.28,1048.84L91.28,1048.84z"
				/>
		</g>
	</g>
	<g>
		<g>
			<path class="st1" d="M140.42,1009.61c0.13-0.96,1.81-1.29,2.55-1.12c1.49,0.33,2.24,2.01,2.47,3.38
				c0.64,3.93-2.24,7.84-5.94,8.93c-1.87,0.55-4.08,0.54-5.83-0.4c-1.3-0.71-2.39-2.37-1.08-3.61c1.28-1.21,3.56-1.48,5.2-1.85
				c2.28-0.51,4.86-0.97,7.13-0.13c1.48,0.55,2.99,1.91,3.22,3.55c0.23,1.68-1.3,2.97-2.69,3.58c-2,0.88-11.26,3.14-10.88-1.23
				c0.17-2,2.06-3.82,3.36-5.18c0.99-1.04,2.9-2.92,4.53-2.04c1.45,0.77,0.33,3.05-0.27,4.03c-0.97,1.61-2.35,3.19-4.14,3.9
				c-1.45,0.57-3.33,0.49-4.52-0.63c-1.38-1.31-0.95-3.49-0.1-4.97c1.02-1.76,2.87-3.66,4.82-4.36c1.53-0.55,3.21-0.02,3.22,1.79
				c0.02,1.97-1.74,3.64-3.09,4.86c-1.52,1.39-3.29,2.5-5.17,3.35c-3.59,1.62-7.85,2.22-11.72,1.42c-1.55-0.32-3.44-0.93-3.45-2.8
				c-0.01-1.77,1.29-3.16,2.73-3.99c1.93-1.11,4.28-1.66,6.44-2.13c1.25-0.27,4.13-0.6,4.45,1.24c0.3,1.72-2.38,3.17-3.56,3.87
				c-2,1.18-4.09,2.22-6.26,3.05c-2.2,0.84-4.46,1.52-6.76,2.01c-1.07,0.23-4.51,1.34-5.36,0.19c-1.09-1.49,1.52-3.7,2.42-4.54
				c1.64-1.55,3.44-2.91,5.37-4.08c3.27-1.98,7.46-4.06,11.38-3.92c1.53,0.05,3.07,0.69,3.3,2.38c0.26,2-1.12,3.71-2.48,4.99
				c-0.74,0.69-1.53,1.39-2.36,1.96c-0.21,0.14-0.91,0.37-1,0.53c-0.09,0.16,0.02,0.1,0.28,0.28c0.03,0.37,0.06,0.42,0.11,0.15
				c0.02-0.12,0.06-0.23,0.12-0.34c0.39-0.86,1.15-1.61,1.76-2.31c0.8-0.91,1.65-1.79,2.53-2.62c1.65-1.55,3.45-2.91,5.36-4.12
				c-0.81-1.05-1.62-2.1-2.44-3.16c-5.81,5.13-13.03,8.35-20.69,9.45c0.76,0.98,1.51,1.97,2.27,2.95c2.35-4,6.15-6.86,10.64-8.05
				c-0.65-1.12-1.3-2.24-1.96-3.36c-5.14,4.36-11.09,7.73-17.46,9.91c0.76,0.98,1.51,1.97,2.27,2.95c2.73-3.59,6.66-6.14,10.99-7.34
				c-0.76-0.98-1.51-1.97-2.27-2.95c-3.12,6.06-7.8,11.13-13.63,14.67c0.68,1.16,1.35,2.31,2.03,3.47
				c11.1-7.36,22.53-14.9,35.77-17.65c-0.52-1.22-1.03-2.45-1.55-3.67c-8.12,5.58-17.29,9.36-26.99,11.13
				c0.52,1.22,1.03,2.45,1.55,3.67c12.43-6.6,25.9-11.03,39.81-13.17c-0.65-1.12-1.3-2.24-1.96-3.36
				c-5.2,6.32-12.47,10.46-20.55,11.72c0.52,1.22,1.03,2.45,1.55,3.67c5.55-3.32,11.85-5.05,18.32-5.02
				c-0.47-1.14-0.95-2.29-1.42-3.43c-6.17,5.59-13.67,9.49-21.76,11.42c0.52,1.22,1.03,2.45,1.55,3.67
				c5.59-3.12,12.17-4.25,18.48-3.06c-0.16-1.22-0.32-2.45-0.48-3.67c-8.31,4.23-17.43,6.83-26.73,7.59
				c0.18,1.32,0.36,2.63,0.53,3.95c16.67-2.51,33.6-3.27,50.43-2.34c-0.18-1.32-0.36-2.63-0.53-3.95
				c-15.98,3.11-32.25,4.48-48.52,4.16c0.18,1.32,0.36,2.63,0.53,3.95c12.98-1.88,26.15-2.42,39.25-1.72
				c-0.18-1.32-0.36-2.63-0.53-3.95c-17.64,2.42-35.47,3.5-53.27,3.32c0,1.34,0,2.68,0,4.02c18.6-1.59,37.29-2.15,55.95-1.66
				c-0.18-1.32-0.36-2.63-0.53-3.95c-15.9,2.28-31.8,4.56-47.7,6.84c0.36,1.29,0.71,2.58,1.07,3.88
				c16.38-2.49,32.98-3.41,49.53-2.82c-0.18-1.32-0.36-2.63-0.53-3.95c-15.68,3.27-31.7,4.65-47.71,4.15
				c0.18,1.32,0.36,2.63,0.53,3.95c14.43-2.12,29.01-3.16,43.6-3.18c0-1.34,0-2.68,0-4.02c-17.77,0.34-35.53,0.68-53.3,1.01
				c-2.59,0.05-2.59,3.97,0,4.02c17.23,0.35,34.45,0.69,51.68,1.04c0-1.34,0-2.68,0-4.02c-12.65,0.37-25.3,0.75-37.96,1.12
				c0,1.34,0,2.68,0,4.02c20.38-1.22,40.81-1.33,61.19-0.33c0-1.34,0-2.68,0-4.02c-17.42,1.81-34.97,2.11-52.44,0.89
				c0,1.34,0,2.68,0,4.02c16.55-2.07,33.24-2.76,49.9-2.04c0-1.34,0-2.68,0-4.02c-19.37,0.19-38.73,0.38-58.1,0.57
				c0,1.34,0,2.68,0,4.02c17.02-0.47,34.05-0.95,51.07-1.42c0-1.34,0-2.68,0-4.02c-17.66,2.02-35.44,2.97-53.21,2.82
				c-5.1-0.04-10.2-0.18-15.3-0.4c0.18,1.32,0.36,2.63,0.53,3.95c18.56-2.87,37.41-3.72,56.16-2.62c0-1.34,0-2.68,0-4.02
				c-7.53,0.82-15.07,1.65-22.6,2.47c-3.73,0.41-7.45,0.81-11.18,1.22c-0.77,0.08-2.47,0.52-3.17-0.03
				c0.19,0.16-0.02,0.24,0.13,0.09c0.18-0.17,0.26-0.33,0.5-0.47c0.64-0.37,1.54-0.43,2.26-0.54c1.07-0.16,1.67-1.52,1.4-2.47
				c-0.32-1.15-1.39-1.57-2.47-1.4c-1.92,0.29-3.84,0.87-4.98,2.57c-1.03,1.55-1.02,3.69,0.32,5.06c1.21,1.24,3.05,1.47,4.7,1.35
				c2.34-0.17,4.69-0.51,7.03-0.76c9.36-1.02,18.71-2.04,28.07-3.06c2.54-0.28,2.63-3.87,0-4.02c-19.12-1.12-38.3-0.17-57.23,2.76
				c-2.33,0.36-1.63,3.86,0.53,3.95c17.76,0.76,35.56,0.45,53.28-0.95c5.09-0.4,10.16-0.9,15.23-1.48c1.08-0.12,2.01-0.84,2.01-2.01
				c0-1.07-0.92-2.04-2.01-2.01c-17.02,0.47-34.05,0.95-51.07,1.42c-2.58,0.07-2.6,4.05,0,4.02c19.37-0.19,38.73-0.38,58.1-0.57
				c2.6-0.03,2.58-3.91,0-4.02c-16.66-0.72-33.36-0.04-49.9,2.04c-2.52,0.32-2.64,3.84,0,4.02c17.47,1.22,35.02,0.92,52.44-0.89
				c2.54-0.26,2.63-3.89,0-4.02c-20.39-1-40.82-0.89-61.19,0.33c-2.56,0.15-2.6,4.1,0,4.02c12.65-0.37,25.3-0.75,37.96-1.12
				c2.58-0.08,2.59-3.97,0-4.02c-17.23-0.35-34.45-0.69-51.68-1.04c0,1.34,0,2.68,0,4.02c17.77-0.34,35.53-0.68,53.3-1.01
				c2.58-0.05,2.59-4.02,0-4.02c-14.95,0.02-29.87,1.16-44.67,3.33c-2.31,0.34-1.64,3.88,0.53,3.95
				c16.36,0.51,32.76-0.95,48.78-4.29c2.29-0.48,1.66-3.87-0.53-3.95c-16.93-0.6-33.86,0.42-50.6,2.96
				c-1.07,0.16-1.67,1.51-1.4,2.47c0.32,1.16,1.39,1.56,2.47,1.4c15.9-2.28,31.8-4.56,47.7-6.84c2.31-0.33,1.64-3.89-0.53-3.95
				c-18.66-0.49-37.35,0.07-55.95,1.66c-2.54,0.22-2.63,3.99,0,4.02c18.18,0.19,36.33-1,54.34-3.46c2.34-0.32,1.61-3.83-0.53-3.95
				c-13.47-0.72-26.97-0.07-40.32,1.86c-2.3,0.33-1.65,3.9,0.53,3.95c16.63,0.33,33.26-1.13,49.59-4.3
				c2.32-0.45,1.63-3.83-0.53-3.95c-17.21-0.95-34.46-0.08-51.5,2.48c-2.22,0.33-1.72,4.13,0.53,3.95
				c10.04-0.83,19.77-3.57,28.75-8.14c1.48-0.75,1.21-3.36-0.48-3.67c-7.39-1.39-15-0.21-21.57,3.46c-2.03,1.13-0.64,4.19,1.55,3.67
				c8.77-2.09,16.86-6.41,23.54-12.45c1.32-1.19,0.26-3.42-1.42-3.43c-7.16-0.03-14.21,1.9-20.35,5.57
				c-2.07,1.24-0.61,4.01,1.55,3.67c8.67-1.36,16.75-5.98,22.33-12.76c1.33-1.61,0.06-3.67-1.96-3.36
				c-14.24,2.2-28.04,6.83-40.77,13.58c-2.13,1.13-0.58,4.06,1.55,3.67c10-1.82,19.57-5.78,27.95-11.53
				c1.88-1.29,0.73-4.15-1.55-3.67c-13.57,2.82-25.36,10.51-36.74,18.05c-2.14,1.42-0.2,4.82,2.03,3.47
				c6.39-3.87,11.65-9.46,15.07-16.11c0.78-1.52-0.51-3.44-2.27-2.95c-5.41,1.5-10,4.73-13.39,9.18c-1.06,1.4,0.7,3.49,2.27,2.95
				c7.06-2.42,13.54-6.11,19.23-10.94c1.59-1.35-0.12-3.84-1.96-3.36c-5.47,1.44-10.17,5.02-13.04,9.89
				c-0.98,1.66,0.63,3.19,2.27,2.95c8.35-1.19,16.16-4.91,22.47-10.48c1.71-1.51-0.51-4.37-2.44-3.16
				c-2.92,1.84-5.64,4.04-7.99,6.57c-1.86,2-5.06,5.2-3.35,8.16c2.09,3.62,6.18,0.78,8.33-1.02c2.44-2.03,4.53-4.61,4.73-7.9
				c0.19-3.15-1.7-5.89-4.69-6.85c-2.73-0.87-5.74-0.29-8.39,0.57c-3.06,0.99-6.01,2.38-8.7,4.15c-2.74,1.8-5.55,3.99-7.5,6.67
				c-1.85,2.54-2.04,6.46,0.84,8.34c2.69,1.76,6.84,0.51,9.67-0.19c3.31-0.81,6.53-2,9.58-3.5c2.78-1.36,5.94-2.95,7.67-5.62
				c1.84-2.84,0.93-6.42-2.06-8.02c-3.01-1.62-6.53-0.58-9.6,0.32c-3.08,0.9-6.3,2.32-7.94,5.25c-1.43,2.55-1.55,5.86,0.49,8.12
				c2.1,2.32,5.63,2.83,8.59,2.94c3.03,0.12,6.14-0.38,8.99-1.42c2.86-1.05,5.48-2.57,7.77-4.58c2.38-2.09,4.73-4.95,4.54-8.31
				c-0.18-3.25-2.71-5.6-5.94-5.67c-3.4-0.07-6.45,2.45-8.45,4.96c-1.99,2.49-3.19,5.85-1.99,8.98c1.09,2.84,3.81,4.43,6.78,4.61
				c3.15,0.19,6.13-1.59,8.11-3.92c1.93-2.27,3.64-5.28,3.03-8.36c-0.65-3.32-4.24-4.77-7.28-3.92c-2.97,0.83-5.31,3.57-7.08,5.97
				c-1.83,2.48-3.06,5.91-1.11,8.71c2.14,3.07,5.95,3.24,9.32,2.79c3.23-0.44,6.66-0.96,9.1-3.34c2.32-2.28,2.81-5.62,1.26-8.47
				c-3.47-6.37-11.93-5.23-17.7-3.33c-2.73,0.9-5.3,2.65-5.55,5.75c-0.27,3.31,2.3,5.87,5.22,6.92c6.37,2.28,13.4-1.57,15.64-7.74
				c1.02-2.82,0.97-6.17-0.55-8.82c-1.43-2.49-4.04-3.92-6.9-3.47c-2.7,0.43-4.62,2.38-4.98,5.07c-0.14,1.08,1.03,2.01,2.01,2.01
				C139.62,1011.62,140.28,1010.69,140.42,1009.61L140.42,1009.61z"/>
		</g>
	</g>
	<g>
		<g>
			<path class="st1" d="M176.22,1031.28c2.59,0,2.59-4.02,0-4.02C173.63,1027.26,173.63,1031.28,176.22,1031.28L176.22,1031.28z"/>
		</g>
	</g>
	<g>
		<g>
			<path class="st1" d="M167.22,1027.45c2.59,0,2.59-4.02,0-4.02C164.64,1023.43,164.63,1027.45,167.22,1027.45L167.22,1027.45z"/>
		</g>
	</g>
	<g>
		<g>
			<path class="st1" d="M144.14,991.81c-10.59,7.6-21.18,15.21-31.78,22.81c-4.52,3.25-9.18,6.41-13.2,10.29
				c-1.93,1.86-3.69,3.9-5.17,6.14c-1.43,2.17-2.83,4.74-2.77,7.42c0.16,6.59,7.8,6.49,12.58,6.94c6.43,0.61,12.87,1.14,19.31,1.58
				c12.89,0.89,25.8,1.45,38.72,1.68c7.29,0.13,14.57,0.15,21.86,0.07c3.02-0.03,6.41-0.01,8.2-2.92c1.72-2.81,0.86-6.05-0.27-8.89
				c-0.38-0.97-1.35-1.77-2.47-1.4c-6.55,2.15-13.8,1.99-20.17-0.71c0.24,0.92,0.48,1.83,0.72,2.75c2.01-2.81,5.98-2.03,7.42,0.83
				c0.48,0.95,1.87,1.27,2.75,0.72c1.86-1.18,3.73-2.35,5.59-3.53c2.18-1.38,0.17-4.86-2.03-3.47c-1.86,1.18-3.73,2.35-5.59,3.53
				c0.92,0.24,1.83,0.48,2.75,0.72c-1.33-2.63-4-4.4-6.94-4.6c-3-0.21-5.73,1.39-7.43,3.77c-0.58,0.81-0.22,2.35,0.72,2.75
				c7.39,3.13,15.62,3.62,23.27,1.11c-0.82-0.47-1.65-0.94-2.47-1.4c0.63,1.6,2.12,4.75,0.33,6.17c-0.76,0.6-1.99,0.51-2.89,0.53
				c-1.49,0.03-2.98,0.04-4.47,0.05c-5.96,0.04-11.93,0.02-17.89-0.08c-11.76-0.19-23.51-0.66-35.25-1.4
				c-5.95-0.38-11.9-0.82-17.84-1.34c-2.97-0.26-5.94-0.53-8.91-0.83c-1.57-0.16-4.61-0.05-5.43-1.77
				c-0.88-1.84,0.89-4.45,1.83-5.91c1.26-1.97,2.8-3.74,4.47-5.38c3.61-3.54,7.78-6.42,11.87-9.36c10.86-7.8,21.72-15.6,32.59-23.39
				c0.88-0.63,1.31-1.75,0.72-2.75C146.38,991.66,145.03,991.18,144.14,991.81L144.14,991.81z"/>
		</g>
	</g>
	<g>
		<g>
			<path class="st1" d="M127.86,997.5c0.98,1.39,1.88,2.82,2.67,4.33c0.37,0.7,0.71,1.41,1.03,2.14c-0.77-1.71,0.31,0.93,0.42,1.26
				c1.36,3.94,5.53,6.96,9.81,5.57c3.9-1.26,7.03-5.59,5.57-9.81c-1.41-4.08-3.24-8-5.73-11.53c-2.4-3.4-7.08-5.33-10.91-2.86
				C127.34,988.76,125.29,993.85,127.86,997.5L127.86,997.5z"/>
		</g>
	</g>
	<g>
		<g>
			<path class="st1" d="M135.07,995.84c-7.22,1.56-13.45,7.78-14.89,15.05c-0.81,4.08,1.16,8.81,5.57,9.81
				c3.96,0.9,8.95-1.19,9.81-5.57c0.11-0.54,0.25-1.05,0.4-1.58c0.39-1.38-0.58,0.92-0.06,0.17c0.09-0.14,0.51-1.16,0.7-1.16
				c-0.66,0.81-0.8,0.99-0.42,0.54c0.17-0.21,0.36-0.41,0.55-0.6c0.18-0.18,1.35-1.27,0.42-0.45c-0.91,0.8,0.28-0.15,0.53-0.3
				c0.23-0.14,0.47-0.27,0.72-0.38c0.54-0.26,0.32-0.17-0.66,0.28c0.02-0.16,1.46-0.4,1.57-0.42c4.08-0.88,6.85-5.87,5.57-9.81
				C143.49,997.11,139.45,994.9,135.07,995.84L135.07,995.84z"/>
		</g>
	</g>
	<g>
		<g>
			<path class="st1" d="M132.19,1011.59c10.27,0,10.28-15.95,0-15.95C121.93,995.64,121.91,1011.59,132.19,1011.59L132.19,1011.59z"
				/>
		</g>
	</g>
	<g>
		<g>
			<path class="st1" d="M124.44,1000.46c-0.32,0.32-0.64,0.64-0.96,0.96c-0.78,0.72-1.33,1.58-1.65,2.57
				c-0.5,0.95-0.73,1.98-0.69,3.07c-0.04,1.1,0.19,2.12,0.69,3.07c0.32,0.99,0.87,1.84,1.65,2.57c0.54,0.42,1.08,0.83,1.61,1.25
				c1.24,0.72,2.59,1.08,4.03,1.09c0.71-0.09,1.41-0.19,2.12-0.28c1.35-0.38,2.52-1.06,3.52-2.05c0.32-0.32,0.64-0.64,0.96-0.96
				c0.78-0.72,1.33-1.58,1.65-2.57c0.5-0.95,0.73-1.98,0.69-3.07c0.04-1.1-0.19-2.12-0.69-3.07c-0.32-0.99-0.87-1.84-1.65-2.57
				c-0.54-0.42-1.08-0.83-1.61-1.25c-1.24-0.72-2.59-1.08-4.03-1.09c-0.71,0.09-1.41,0.19-2.12,0.28
				C126.61,998.79,125.44,999.47,124.44,1000.46L124.44,1000.46z"/>
		</g>
	</g>
	<g>
		<g>
			<path class="st1" d="M117.71,1009.74c0,0.06,0,0.13,0,0.19c-0.04,1.1,0.19,2.12,0.69,3.07c0.32,0.99,0.87,1.84,1.65,2.57
				c0.72,0.78,1.58,1.33,2.57,1.65c0.95,0.5,1.98,0.73,3.07,0.69c0.71-0.09,1.41-0.19,2.12-0.28c1.35-0.38,2.52-1.06,3.52-2.05
				c0.42-0.54,0.83-1.08,1.25-1.61c0.72-1.24,1.08-2.59,1.09-4.03c0-0.06,0-0.13,0-0.19c0.04-1.1-0.19-2.12-0.69-3.07
				c-0.32-0.99-0.87-1.84-1.65-2.57c-0.72-0.78-1.58-1.33-2.57-1.65c-0.95-0.5-1.98-0.73-3.07-0.69c-0.71,0.09-1.41,0.19-2.12,0.28
				c-1.35,0.38-2.52,1.06-3.52,2.05c-0.42,0.54-0.83,1.08-1.25,1.61C118.07,1006.96,117.71,1008.3,117.71,1009.74L117.71,1009.74z"
				/>
		</g>
	</g>
	<g>
		<g>
			<path class="st1" d="M97.04,1048.86c16.89,1.66,33.92,1.78,50.87,1.25c7.62-0.24,16.59,0.43,23.93-1.75
				c7.27-2.16,10.46-9.78,8.72-16.83c-1.46-5.93-5.65-10.48-10.18-14.32c-4.94-4.2-8.11-7.02-10.15-13.3
				c-2.18-6.72-5.55-13.49-12.62-16.11c-6.8-2.53-13.65,0.15-18.09,5.64c-2.52,3.11-3.91,6.95-6.5,9.99
				c-2.47,2.9-5.67,5.07-8.75,7.26c-6.68,4.76-13.36,9.81-16.86,17.46c-2.32,5.06,0.3,12.41,6.89,12
				c23.08-1.43,46.17-2.87,69.25-4.3c10.2-0.63,10.27-16.59,0-15.95c-23.08,1.43-46.17,2.87-69.25,4.3c2.3,4,4.59,8,6.89,12
				c2.86-6.25,8.35-9.67,13.73-13.58c5.97-4.34,10.98-8.92,14.67-15.38c0.6-1.05,1.21-2.65,2.05-3.57c1.57-1.72,1.18-0.8,0.5-0.98
				c1.72,0.43,2.75,5.7,3.16,6.96c2.04,6.2,4.94,11.12,9.81,15.49c2.09,1.88,4.36,3.55,6.41,5.48c0.89,0.84,1.92,1.7,2.6,2.72
				c0.24,0.36,0.6,1.68,0.91,1.85c0.3,1.19,0.94,0.53,1.92-1.98c-0.2,0.02-0.4,0.04-0.6,0.06c-0.56-0.59-5.81,0.36-6.8,0.41
				c-4.21,0.23-8.42,0.4-12.63,0.52c-16.63,0.48-33.33,0.35-49.9-1.28c-4.29-0.42-7.98,3.97-7.98,7.98
				C89.06,1045.55,92.73,1048.44,97.04,1048.86L97.04,1048.86z"/>
		</g>
	</g>
	<g>
		<g>
			<path class="st1" d="M148.52,1010.82c2.65,7.73,7.93,12.97,14.59,17.48c5.51,3.73,12.89,6.85,14.47,13.97
				c1.96,8.81,15.83,6.82,15.67-2.12c-0.02-1.3-0.05-2.61-0.07-3.91c-4.54,1.88-9.08,3.76-13.62,5.64
				c-0.04-0.02-0.09-0.03-0.13-0.05c0-1.41,0-2.83,0-4.24c-0.1,0.19-0.2,0.38-0.3,0.58c0.95-0.95,1.91-1.91,2.86-2.86
				c0.66,0.12,0.6,0.15-0.18,0.07c-0.87-0.05-1.73-0.11-2.6-0.18c-1.97-0.14-3.94-0.28-5.9-0.41c-3.28-0.21-6.56-0.41-9.85-0.58
				c-7.55-0.39-15.11-0.66-22.67-0.81c-14.8-0.3-29.6-0.12-44.38,0.48c-10.23,0.41-10.28,16.37,0,15.95
				c20.05-0.81,40.11-0.83,60.16,0.01c4.93,0.21,9.85,0.46,14.78,0.77c4.37,0.27,9.07,1.2,13.42,0.55
				c9.9-1.49,13.86-13.94,6.09-20.55c-5.02-4.27-13.75-1.71-13.62,5.64c0.02,1.3,0.05,2.61,0.07,3.91
				c5.22-0.71,10.45-1.41,15.67-2.12c-1.76-7.89-7.22-13.57-13.62-18.14c-5.14-3.67-13.22-6.82-15.44-13.31
				C160.6,996.92,145.18,1001.07,148.52,1010.82L148.52,1010.82z"/>
		</g>
	</g>
	<g>
		<g>
			<path class="st1" d="M90.3,1034.64c-0.13,0.19-0.26,0.38-0.39,0.57c-0.58,0.92-0.9,1.9-0.95,2.97c-0.24,1.06-0.19,2.12,0.14,3.18
				c0.25,1.04,0.72,1.94,1.43,2.71c0.56,0.87,1.31,1.55,2.24,2.05c0.64,0.27,1.27,0.54,1.91,0.8c1.41,0.38,2.83,0.38,4.24,0
				c0.64-0.27,1.27-0.54,1.91-0.8c1.2-0.71,2.15-1.66,2.86-2.86c0.13-0.19,0.26-0.38,0.39-0.57c0.58-0.92,0.9-1.9,0.95-2.97
				c0.24-1.06,0.19-2.12-0.14-3.18c-0.25-1.04-0.72-1.94-1.43-2.71c-0.56-0.87-1.31-1.55-2.24-2.05c-0.64-0.27-1.27-0.54-1.91-0.8
				c-1.41-0.38-2.83-0.38-4.24,0c-0.64,0.27-1.27,0.54-1.91,0.8C91.97,1032.49,91.01,1033.44,90.3,1034.64L90.3,1034.64z"/>
		</g>
	</g>
	<g>
		<g>
			<path class="st1" d="M96.97,1047.2c10.27,0,10.28-15.95,0-15.95C86.7,1031.24,86.69,1047.2,96.97,1047.2L96.97,1047.2z"/>
		</g>
	</g>
	<g>
		<g>
			<path class="st1" d="M96.97,1046.81c10.27,0,10.28-15.95,0-15.95C86.7,1030.86,86.69,1046.81,96.97,1046.81L96.97,1046.81z"/>
		</g>
	</g>
	<g>
		<g>
			<path class="st1" d="M96.2,1046.24c10.27,0,10.28-15.95,0-15.95C85.94,1030.29,85.92,1046.24,96.2,1046.24L96.2,1046.24z"/>
		</g>
	</g>
	<g>
		<g>
			<path class="st1" d="M97.54,1043.18c10.27,0,10.28-15.95,0-15.95C87.28,1027.22,87.26,1043.18,97.54,1043.18L97.54,1043.18z"/>
		</g>
	</g>
	<g>
		<g>
			<path class="st1" d="M99.84,1041.45c10.27,0,10.28-15.95,0-15.95C89.57,1025.5,89.56,1041.45,99.84,1041.45L99.84,1041.45z"/>
		</g>
	</g>
	<g>
		<g>
			<path class="st1" d="M105.7,1038.53c7.72-5.12,14.83-11.07,21.1-17.91c3.67-4,2.71-9.53-1.61-12.53
				c-8.62-5.98-18.59,6.27-11.21,13.69c7.45,7.49,19.37-2.42,13.74-11.17c-5.54-8.6-19.36-0.61-13.78,8.05
				c0.13,0.2,0.26,0.41,0.39,0.61c-0.36-1.34-0.73-2.68-1.09-4.03c-0.03,0.25-0.06,0.49-0.09,0.74c0.78-1.88,1.56-3.76,2.34-5.64
				c-0.18,0.17-0.35,0.33-0.53,0.5c1.88-0.78,3.76-1.56,5.64-2.34c-0.24-0.03-0.48-0.05-0.72-0.08c1.88,0.78,3.76,1.56,5.64,2.34
				c-0.17-0.18-0.35-0.36-0.52-0.54c0.78,1.88,1.56,3.76,2.34,5.64c-0.02-0.24-0.03-0.48-0.05-0.72c-0.78,1.88-1.56,3.76-2.34,5.64
				c0.17-0.17,0.34-0.34,0.51-0.51c-1.88,0.78-3.76,1.56-5.64,2.34c0.25-0.02,0.5-0.04,0.75-0.07c-1.34-0.36-2.68-0.73-4.03-1.09
				c0.2,0.14,0.4,0.28,0.6,0.41c-0.54-4.18-1.08-8.35-1.61-12.53c-5.36,5.85-11.25,11.03-17.87,15.42
				C89.13,1030.4,97.12,1044.22,105.7,1038.53L105.7,1038.53z"/>
		</g>
	</g>
	<g>
		<g>
			<path class="st1" d="M121.47,1022.12c10.27,0,10.28-15.95,0-15.95C111.21,1006.17,111.19,1022.12,121.47,1022.12L121.47,1022.12z
				"/>
		</g>
	</g>
	<g>
		<g>
			<path class="st1" d="M138.7,1000.87c10.27,0,10.28-15.95,0-15.95C128.43,984.92,128.42,1000.87,138.7,1000.87L138.7,1000.87z"/>
		</g>
	</g>
	<g>
		<g>
			<path class="st1" d="M142.72,1001.45c10.27,0,10.28-15.95,0-15.95C132.45,985.49,132.44,1001.45,142.72,1001.45L142.72,1001.45z"
				/>
		</g>
	</g>
	<g>
		<g>
			<path class="st1" d="M144.06,1001.06c10.27,0,10.28-15.95,0-15.95C133.79,985.11,133.78,1001.06,144.06,1001.06L144.06,1001.06z"
				/>
		</g>
	</g>
	<g>
		<g>
			<path class="st1" d="M143.29,1001.06c10.27,0,10.28-15.95,0-15.95C133.03,985.11,133.01,1001.06,143.29,1001.06L143.29,1001.06z"
				/>
		</g>
	</g>
	<g>
		<g>
			<path class="st1" d="M142.15,1001.06c10.27,0,10.28-15.95,0-15.95C131.88,985.11,131.86,1001.06,142.15,1001.06L142.15,1001.06z"
				/>
		</g>
	</g>
	<g>
		<g>
			<path class="st1" d="M146.74,1000.49c10.27,0,10.28-15.95,0-15.95C136.47,984.53,136.46,1000.49,146.74,1000.49L146.74,1000.49z"
				/>
		</g>
	</g>
	<g>
		<g>
			<path class="st1" d="M148.08,1001.45c10.27,0,10.28-15.95,0-15.95C137.81,985.49,137.8,1001.45,148.08,1001.45L148.08,1001.45z"
				/>
		</g>
	</g>
	<g>
		<g>
			<path class="st1" d="M160.33,1020.4c10.27,0,10.28-15.95,0-15.95C150.07,1004.44,150.05,1020.4,160.33,1020.4L160.33,1020.4z"/>
		</g>
	</g>
	<g>
		<g>
			<path class="st1" d="M162.82,1022.89c10.27,0,10.28-15.95,0-15.95C152.55,1006.93,152.54,1022.89,162.82,1022.89L162.82,1022.89z
				"/>
		</g>
	</g>
	<g>
		<g>
			<path class="st1" d="M165.5,1024.8c10.27,0,10.28-15.95,0-15.95C155.23,1008.85,155.22,1024.8,165.5,1024.8L165.5,1024.8z"/>
		</g>
	</g>
	<g>
		<g>
			<path class="st1" d="M167.41,1027.29c10.27,0,10.28-15.95,0-15.95C157.15,1011.33,157.13,1027.29,167.41,1027.29L167.41,1027.29z
				"/>
		</g>
	</g>
	<g>
		<g>
			<path class="st1" d="M169.33,1029.01c10.27,0,10.28-15.95,0-15.95C159.06,1013.06,159.05,1029.01,169.33,1029.01L169.33,1029.01z
				"/>
		</g>
	</g>
	<g>
		<g>
			<path class="st1" d="M171.05,1030.35c10.27,0,10.28-15.95,0-15.95C160.79,1014.4,160.77,1030.35,171.05,1030.35L171.05,1030.35z"
				/>
		</g>
	</g>
	<g>
		<g>
			<path class="st1" d="M191.14,1044.21c0.4,1.46-0.37,2.71-1.7,3.31c-1.95,0.88-0.79,3.65,1.01,3.75c0.99,0.05,1.98,0.1,2.97,0.16
				c1.09,0.06,2.01-0.96,2.01-2.01c0-1.19-0.93-1.88-2.01-2.01c-28.16-3.41-56.41-6.16-84.7-8.23c-3.9-0.29-7.83-0.73-11.74-0.79
				c-3.3-0.06-7.09,1.29-7.83,4.92c-0.51,2.53,3.36,3.61,3.88,1.07c0.58-2.83,5.04-1.92,7.04-1.78c3.3,0.23,6.6,0.46,9.9,0.7
				c6.76,0.5,13.52,1.04,20.28,1.62c13.51,1.15,27.02,2.46,40.5,3.92c7.56,0.82,15.12,1.69,22.68,2.6c0-1.34,0-2.68,0-4.02
				c-0.99-0.05-1.98-0.1-2.97-0.16c0.34,1.25,0.68,2.5,1.01,3.75c2.93-1.33,4.38-4.8,3.55-7.85
				C194.33,1040.65,190.45,1041.71,191.14,1044.21L191.14,1044.21z"/>
		</g>
	</g>
	<g>
		<g>
			<path class="st1" d="M90.84,1050.23c0.38,0,0.77,0,1.15,0c0.28,0.01,0.53-0.05,0.77-0.17c0.25-0.08,0.46-0.22,0.65-0.42
				c0.2-0.18,0.33-0.4,0.42-0.65c0.13-0.24,0.18-0.5,0.17-0.77c-0.02-0.18-0.05-0.36-0.07-0.53c-0.1-0.34-0.27-0.64-0.52-0.89
				c-0.14-0.1-0.27-0.21-0.41-0.31c-0.31-0.18-0.65-0.27-1.01-0.27c-0.38,0-0.77,0-1.15,0c-0.28-0.01-0.53,0.05-0.77,0.17
				c-0.25,0.08-0.46,0.22-0.65,0.42c-0.2,0.18-0.33,0.4-0.42,0.65c-0.13,0.24-0.18,0.5-0.17,0.77c0.02,0.18,0.05,0.36,0.07,0.53
				c0.1,0.34,0.27,0.64,0.52,0.89c0.14,0.1,0.27,0.21,0.41,0.31C90.14,1050.13,90.48,1050.23,90.84,1050.23L90.84,1050.23z"/>
		</g>
	</g>
	<g>
		<g>
			<path class="st1" d="M89.12,1050.7c7.15-0.07,14.3,0.19,21.43,0.79c1.08,0.09,2.01-0.99,2.01-2.01c0-1.16-0.92-1.92-2.01-2.01
				c-7.13-0.6-14.28-0.86-21.43-0.79C86.54,1046.7,86.53,1050.72,89.12,1050.7L89.12,1050.7z"/>
		</g>
	</g>
	<line class="st2" x1="89.89" y1="1056.83" x2="193.07" y2="1056.83"/>
	<line class="st3" x1="92.57" y1="1062.19" x2="191.73" y2="1062.19"/>
	<g>
		<g>
			<path class="st4" d="M119.56,1070.4c6.5,0.34,12.88,2.08,18.66,5.08c2.29,1.19,4.33-2.28,2.03-3.47
				c-6.43-3.34-13.46-5.25-20.69-5.63C116.98,1066.25,116.98,1070.27,119.56,1070.4L119.56,1070.4z"/>
		</g>
	</g>
	<g>
		<g>
			<path class="st4" d="M121.77,1067.3c0.02-0.16,0.07-0.32,0.13-0.47c-0.07,0.16-0.14,0.32-0.2,0.48c0.07-0.17,0.16-0.32,0.27-0.46
				c-0.1,0.14-0.21,0.27-0.31,0.41c0.13-0.17,0.29-0.32,0.46-0.46c-0.14,0.1-0.27,0.21-0.41,0.31c0.16-0.12,0.33-0.22,0.51-0.3
				c-0.16,0.07-0.32,0.14-0.48,0.2c0.18-0.08,0.37-0.13,0.57-0.16c-0.18,0.02-0.36,0.05-0.53,0.07c0.18-0.02,0.36-0.03,0.53-0.01
				c-0.18-0.02-0.36-0.05-0.53-0.07c0.18,0.02,0.35,0.07,0.51,0.14c-0.16-0.07-0.32-0.14-0.48-0.2c0.16,0.07,0.3,0.16,0.44,0.26
				c-0.14-0.1-0.27-0.21-0.41-0.31c0.15,0.12,0.28,0.25,0.39,0.4c-0.1-0.14-0.21-0.27-0.31-0.41c0.12,0.17,0.23,0.35,0.31,0.54
				c-0.07-0.16-0.14-0.32-0.2-0.48c0.08,0.19,0.13,0.39,0.16,0.6c-0.02-0.18-0.05-0.36-0.07-0.53c0.02,0.19,0.02,0.38,0,0.56
				c0.02-0.18,0.05-0.36,0.07-0.53c-0.03,0.17-0.07,0.34-0.13,0.5c0.07-0.16,0.14-0.32,0.2-0.48c-0.01,0.03-0.03,0.06-0.04,0.09
				c-0.24,0.5-0.35,1-0.2,1.55c0.13,0.47,0.49,0.97,0.92,1.2c0.47,0.25,1.03,0.37,1.55,0.2c0.47-0.15,0.98-0.46,1.2-0.92
				c0.27-0.58,0.4-1.02,0.46-1.66c0.04-0.42-0.02-0.85-0.11-1.25c-0.09-0.4-0.26-0.8-0.46-1.16c-0.2-0.35-0.46-0.7-0.76-0.97
				c-0.75-0.68-1.68-1.09-2.7-1.1c-0.28,0-0.58,0.05-0.85,0.09c-0.14,0.02-0.28,0.05-0.42,0.1c-0.4,0.14-0.8,0.31-1.15,0.56
				c-0.52,0.38-0.92,0.76-1.27,1.31c-0.16,0.25-0.27,0.54-0.38,0.81c-0.06,0.15-0.1,0.31-0.13,0.47c-0.08,0.27-0.1,0.53-0.04,0.8
				c0.01,0.27,0.09,0.52,0.24,0.75c0.24,0.42,0.72,0.81,1.2,0.92c0.51,0.12,1.09,0.09,1.55-0.2
				C121.25,1068.24,121.69,1067.81,121.77,1067.3L121.77,1067.3z"/>
		</g>
	</g>
	<g>
		<g>
			<path class="st4" d="M131.65,1064.98c0.07,1.11-0.45,2.27-1.62,2.57c-0.98,0.25-2.19-0.37-2.56-1.32
				c-0.65,0.85-1.29,1.7-1.94,2.54c9.59-0.9,19.28-0.59,28.78,1.03c0.18-1.32,0.36-2.63,0.53-3.95c-8.4,0.55-16.84,0.16-25.15-1.23
				c-0.18,1.32-0.36,2.63-0.53,3.95c11.61,0,23.23,0,34.84,0c0-1.34,0-2.68,0-4.02c-8.84,0.2-17.68,0.4-26.52,0.6
				c0,1.34,0,2.68,0,4.02c13.11-0.45,26.21-0.9,39.32-1.35c0-1.34,0-2.68,0-4.02c-7,0.36-13.99,0.72-20.99,1.08
				c-2.57,0.13-2.6,4.09,0,4.02c6.22-0.16,12.44-0.33,18.66-0.49c0-1.34,0-2.68,0-4.02c-6.2,0.33-12.41,0.67-18.61,1
				c-2.57,0.14-2.6,3.94,0,4.02c7.89,0.23,15.78,0.46,23.67,0.69c0-1.34,0-2.68,0-4.02c-7.84,0.91-15.69,1.82-23.53,2.72
				c-1.08,0.12-2.01,0.83-2.01,2.01c0,1.05,0.92,2.06,2.01,2.01c3.32-0.15,6.64-0.29,9.96-0.43c0-1.34,0-2.68,0-4.02
				c-6.9,0.36-13.8,0.73-20.7,1.09c-2.57,0.14-2.61,4,0,4.02c3.98,0.03,7.95,0.06,11.93,0.09c0-1.34,0-2.68,0-4.02
				c-9.82,0.02-19.65,0.04-29.47,0.07c-2.59,0.01-2.59,4,0,4.02c7.96,0.06,15.93,0.11,23.89,0.17c0-1.34,0-2.68,0-4.02
				c-6.04,0.31-12.08,0.62-18.12,0.93c-2.58,0.13-2.6,3.94,0,4.02c11.72,0.37,23.45,0.74,35.17,1.1c0-1.34,0-2.68,0-4.02
				c-9.58,0.32-19.16,0.63-28.74,0.95c-2.58,0.09-2.59,3.97,0,4.02c5.51,0.11,11.01,0.22,16.52,0.34c0-1.34,0-2.68,0-4.02
				c-8.13,0.43-16.27,0.85-24.4,1.28c-2.57,0.14-2.59,4.16,0,4.02c8.13-0.43,16.27-0.85,24.4-1.28c2.57-0.14,2.6-3.97,0-4.02
				c-5.51-0.11-11.01-0.22-16.52-0.34c0,1.34,0,2.68,0,4.02c9.58-0.32,19.16-0.63,28.74-0.95c2.59-0.09,2.59-3.94,0-4.02
				c-11.72-0.37-23.45-0.74-35.17-1.1c0,1.34,0,2.68,0,4.02c6.04-0.31,12.08-0.62,18.12-0.93c2.57-0.13,2.6-4,0-4.02
				c-7.96-0.06-15.93-0.11-23.89-0.17c0,1.34,0,2.68,0,4.02c9.82-0.02,19.65-0.04,29.47-0.07c2.59-0.01,2.59-4,0-4.02
				c-3.98-0.03-7.95-0.06-11.93-0.09c0,1.34,0,2.68,0,4.02c6.9-0.36,13.8-0.73,20.7-1.09c2.57-0.14,2.59-4.13,0-4.02
				c-3.32,0.15-6.64,0.29-9.96,0.43c0,1.34,0,2.68,0,4.02c7.84-0.91,15.69-1.82,23.53-2.72c2.51-0.29,2.65-3.94,0-4.02
				c-7.89-0.23-15.78-0.46-23.67-0.69c0,1.34,0,2.68,0,4.02c6.2-0.33,12.41-0.67,18.61-1c2.57-0.14,2.6-4.09,0-4.02
				c-6.22,0.16-12.44,0.33-18.66,0.49c0,1.34,0,2.68,0,4.02c7-0.36,13.99-0.72,20.99-1.08c2.57-0.13,2.6-4.11,0-4.02
				c-13.11,0.45-26.21,0.9-39.32,1.35c-2.58,0.09-2.6,4.08,0,4.02c8.84-0.2,17.68-0.4,26.52-0.6c2.58-0.06,2.59-4.02,0-4.02
				c-11.61,0-23.23,0-34.84,0c-2.19,0-2.83,3.56-0.53,3.95c8.67,1.45,17.44,1.94,26.21,1.37c2.11-0.14,2.9-3.55,0.53-3.95
				c-9.86-1.68-19.88-2.11-29.84-1.17c-1.17,0.11-2.45,1.21-1.94,2.54c1.11,2.91,4.01,4.83,7.17,4.2c2.96-0.58,5.1-3.54,4.9-6.52
				C135.51,1062.41,131.49,1062.39,131.65,1064.98L131.65,1064.98z"/>
		</g>
	</g>
	<g>
		<g>
			<path class="st4" d="M96.28,1066.07c0.23,0.08,0.24,0.09,0.05,0.02c0.11,0.06,0.22,0.12,0.33,0.19c0.19,0.13,0.21,0.14,0.05,0.03
				c0.1,0.08,0.19,0.17,0.28,0.26c0.43,0.42,0.41,0.41,0.77,0.99c0.58,0.94,1.07,2.03,1.44,2.95c0.96,2.4,1.62,4.91,1.99,7.47
				c1.29-0.36,2.58-0.71,3.88-1.07c-0.4-2.73-0.8-5.46-1.2-8.2c-0.16-1.08-1.52-1.67-2.47-1.4c-1.15,0.32-1.56,1.39-1.4,2.47
				c0.4,2.73,0.8,5.46,1.2,8.2c0.16,1.08,1.52,1.67,2.47,1.4c1.15-0.32,1.56-1.39,1.4-2.47c-0.43-2.98-1.28-5.85-2.47-8.62
				c-1.1-2.57-2.48-5.1-5.27-6.09c-0.99-0.35-2.24,0.4-2.47,1.4C94.62,1064.73,95.22,1065.7,96.28,1066.07L96.28,1066.07z"/>
		</g>
	</g>
	<g>
		<g>
			<path class="st4" d="M95.77,1065.9c0.44,1.02,0.89,2.04,1.33,3.07c0.13,0.23,0.3,0.42,0.52,0.56c0.19,0.18,0.42,0.3,0.68,0.36
				c0.27,0.08,0.53,0.1,0.8,0.04c0.27-0.01,0.52-0.09,0.75-0.24c0.43-0.28,0.81-0.69,0.92-1.2c0.02-0.18,0.05-0.36,0.07-0.53
				c0-0.36-0.09-0.7-0.27-1.01c-0.44-1.02-0.89-2.04-1.33-3.07c-0.13-0.23-0.3-0.42-0.52-0.56c-0.19-0.18-0.42-0.3-0.68-0.36
				c-0.27-0.08-0.53-0.1-0.8-0.04c-0.27,0.01-0.52,0.09-0.75,0.24c-0.43,0.28-0.81,0.69-0.92,1.2c-0.02,0.18-0.05,0.36-0.07,0.53
				C95.5,1065.25,95.59,1065.59,95.77,1065.9L95.77,1065.9z"/>
		</g>
	</g>
	<g>
		<g>
			<path class="st4" d="M175.26,1078.97c10.27,0,10.28-15.95,0-15.95C165,1063.02,164.98,1078.97,175.26,1078.97L175.26,1078.97z"/>
		</g>
	</g>
	<g>
		<g>
			<path class="st4" d="M176.41,1076.87c10.27,0,10.28-15.95,0-15.95C166.15,1060.91,166.13,1076.87,176.41,1076.87L176.41,1076.87z
				"/>
		</g>
	</g>
	<g>
		<g>
			<path class="st4" d="M175.07,1080.12c10.27,0,10.28-15.95,0-15.95C164.81,1064.17,164.79,1080.12,175.07,1080.12L175.07,1080.12z
				"/>
		</g>
	</g>
	<g>
		<g>
			<path class="st4" d="M108.45,1080.36c16.98,0.6,33.95,1.21,50.93,1.81c10.27,0.36,10.25-15.59,0-15.95
				c-16.98-0.6-33.95-1.21-50.93-1.81C98.18,1064.04,98.2,1080,108.45,1080.36L108.45,1080.36z"/>
		</g>
	</g>
	<line class="st5" x1="101.28" y1="1081.62" x2="181.68" y2="1081.62"/>
	<line class="st6" x1="101.37" y1="1088.99" x2="181.77" y2="1088.99"/>
	<line class="st7" x1="101.95" y1="1105.74" x2="181.01" y2="1105.74"/>
	<line class="st8" x1="181.68" y1="1104.4" x2="101.28" y2="1104.4"/>
	<line class="st9" x1="181.01" y1="1103.73" x2="101.95" y2="1103.73"/>
	<line class="st10" x1="101.95" y1="1133.21" x2="181.01" y2="1133.21"/>
	<line class="st11" x1="181.01" y1="1133.21" x2="101.95" y2="1133.21"/>
	<line class="st12" x1="101.95" y1="1133.21" x2="181.01" y2="1133.21"/>
	<line class="st13" x1="101.95" y1="1133.21" x2="181.01" y2="1133.21"/>
	<line class="st14" x1="101.95" y1="1166.71" x2="181.01" y2="1166.71"/>
	<line class="st15" x1="101.28" y1="1172.74" x2="181.68" y2="1172.74"/>
	<line class="st16" x1="101.28" y1="1206.24" x2="181.68" y2="1206.24"/>
	<line class="st17" x1="181.68" y1="1188.82" x2="101.28" y2="1188.82"/>
	<g>
		<g>
			<path class="st18" d="M139.66,1245.33c10.27,0,10.28-15.95,0-15.95C129.39,1229.37,129.37,1245.33,139.66,1245.33L139.66,1245.33
				z"/>
		</g>
	</g>
	<g>
		<g>
			<path class="st18" d="M130.82,1238.23c0,0.35,0,0.7,0,1.05c0.78-1.88,1.56-3.76,2.34-5.64c-0.23,0.29-0.45,0.58-0.68,0.87
				c1.17-0.68,2.35-1.37,3.52-2.05c-0.35,0.12-0.7,0.23-1.05,0.35c1.41,0,2.83,0,4.24,0c-0.35-0.1-0.7-0.21-1.05-0.31
				c1.17,0.68,2.35,1.37,3.52,2.05c-0.01-0.06-0.02-0.13-0.03-0.19c0.36,1.34,0.73,2.68,1.09,4.03c-0.01-0.94,1.24-1.28,1.96-1.27
				c-1.34-0.36-2.68-0.73-4.03-1.09c0.37,0.21,0.74,0.41,1.11,0.62c-1.22-1.59-2.44-3.18-3.67-4.77c0.1,0.4,0.21,0.8,0.31,1.2
				c0-1.41,0-2.83,0-4.24c-0.17,0.4-0.33,0.8-0.5,1.19c0.68-1.17,1.37-2.35,2.05-3.52c-0.57,0.48-2.17,0.63-3.01,0.88
				c-0.59,0.19-1.19,0.34-1.8,0.47c-1.3,0.19-1.2,0.32,0.29,0.38c0.95,0.95,1.91,1.91,2.86,2.86c0.1,0.18,0.2,0.35,0.3,0.53
				c-0.36,1.34-0.73,2.68-1.09,4.03c-0.5,1.03-2.34,0.24,0.97,0.92c0-5.13,0-10.26,0-15.38c-4.48,0.61-8.79-0.37-12.95-1.94
				c-0.71,5.22-1.41,10.45-2.12,15.67c12.2-1.34,24.44-1.81,36.71-1.42c0-5.32,0-10.64,0-15.95c-10.94-0.02-21.89-0.03-32.83-0.05
				c0,5.32,0,10.64,0,15.95c12.99,0.01,25.98,0.01,38.97,0.02c0-5.32,0-10.64,0-15.95c-13.2,0.07-26.4,0.14-39.6,0.21
				c-10.26,0.05-10.28,15.96,0,15.95c10.1,0,20.2,0,30.3,0c0-5.32,0-10.64,0-15.95c-16.04,1.97-32.16,2.92-48.32,2.86
				c0,5.32,0,10.64,0,15.95c12.02-0.33,24.04-0.66,36.06-0.99c10.24-0.28,10.3-15.92,0-15.95c-12.03-0.04-24.07-0.07-36.1-0.11
				c0,5.32,0,10.64,0,15.95c13.86-0.36,27.73-0.73,41.59-1.09c10.25-0.27,10.29-16.22,0-15.95c-13.86,0.36-27.73,0.73-41.59,1.09
				c-10.24,0.27-10.3,15.92,0,15.95c12.03,0.04,24.07,0.07,36.1,0.11c0-5.32,0-10.64,0-15.95c-12.02,0.33-24.04,0.66-36.06,0.99
				c-10.24,0.28-10.3,15.91,0,15.95c16.16,0.07,32.28-0.89,48.32-2.86c4.28-0.53,7.98-3.29,7.98-7.98c0-4.33-3.65-7.98-7.98-7.98
				c-10.1,0-20.2,0-30.3,0c0,5.32,0,10.64,0,15.95c13.2-0.07,26.4-0.14,39.6-0.21c10.26-0.05,10.28-15.95,0-15.95
				c-12.99-0.01-25.98-0.01-38.97-0.02c-10.27,0-10.28,15.94,0,15.95c10.94,0.02,21.89,0.03,32.83,0.05
				c10.29,0.02,10.25-15.63,0-15.95c-12.27-0.39-24.5,0.08-36.71,1.42c-8.97,0.98-10.8,12.39-2.12,15.67
				c7.03,2.65,14.05,2.95,21.43,1.94c7.85-1.08,7.36-13.88,0-15.38c-5.94-1.22-12.17-1.42-16.75,3.21
				c-4.34,4.38-4.65,11.92-0.2,16.37c7.77,7.77,30.77,0.62,28.02-11.93c-3.15-14.37-21.87-5.95-25.81,3.19
				c-2.55,5.91-0.8,13.71,5.92,15.85c6.65,2.12,12.87-2.82,12.88-9.65C146.8,1227.96,130.84,1227.95,130.82,1238.23L130.82,1238.23z
				"/>
		</g>
	</g>
	<g>
		<g>
			<path class="st18" d="M100.18,1217.72c-1.81,3.35-3.62,6.7-5.43,10.06c-2.93,5.43,0.75,11.77,6.89,12
				c10.05,0.38,20.11,0.75,30.16,1.13c-0.71-5.22-1.41-10.45-2.12-15.67c-6.89,2.13-13.77,4.26-20.66,6.39
				c-8.5,2.63-7.06,15.61,2.12,15.67c4.59,0.03,9.18,0.06,13.77,0.09c3.46,0.02,8.96-0.79,11.7,0.25c-1.59-1.22-3.18-2.44-4.77-3.67
				c0.18,0.25,0.36,0.5,0.54,0.75c-0.27-2.05-0.54-4.1-0.8-6.15c-0.11,0.41-0.23,0.82-0.34,1.23c0.68-1.17,1.37-2.35,2.05-3.52
				c-2.84,2.51-6.49,4.5-9.62,6.64c-7.73,5.28-2.74,15.99,6.15,14.58c8.1-1.28,16.19-2.57,24.29-3.85
				c-3.27-3.27-6.54-6.54-9.81-9.81c-1.21,3.22-4.52,5.74-7.94,6.04c1.88,4.54,3.76,9.08,5.64,13.62c1.61-1.96,3.27-3.73,5.44-5.08
				c0.76-0.47,1.61-0.81,2.36-1.29c1.89-1.21,1.23-0.8,1.54-0.41c-0.68-1.17-1.37-2.35-2.05-3.52c0.05-0.28,0.09-0.56,0.14-0.84
				c0.68-1.17,1.37-2.35,2.05-3.52c0.68-0.29,1.36-0.58,2.04-0.86c1.34,0.36,2.68,0.73,4.03,1.09c-0.28-0.18-0.57-0.36-0.85-0.55
				c0.95,0.95,1.91,1.91,2.86,2.86c-0.21-0.37-0.41-0.73-0.62-1.1c0.36,1.34,0.73,2.68,1.09,4.03c-0.13-1.58,2.14-3.25,3.33-4.04
				c-4-2.3-8-4.59-12-6.89c-0.14,1.6-1.82,2.17-3.12,2.17c2.66,2.66,5.32,5.32,7.98,7.98c-0.13-1.37-0.28-2.7,0.03-4.05
				c0.15-0.5,0.3-0.99,0.45-1.49c1-1.34,0.56-1.35-1.33-0.03c-1.34-0.36-2.68-0.73-4.03-1.09c-0.51-2.7-1.05-3.35-1.63-1.94
				c-0.74,1.1-0.25,0.94,1.48-0.47c1.34,0.36,2.68,0.73,4.03,1.09c-0.16,4.17,0.39,5.5,1.64,3.97c0.63-0.61,1.29-1.18,1.97-1.73
				c7.88-6.6-3.46-17.84-11.28-11.28c-6.21,5.2-9.88,14.66-2.93,21.1c7.64,7.08,17.22,0.24,20.26-7.67
				c3.32-8.64-2.19-20.22-12.84-17.68c-8.89,2.12-12.56,13.19-11.77,21.27c0.42,4.3,3.32,7.98,7.98,7.98
				c10.55,0,18.16-7.9,19.08-18.12c0.53-5.94-7.21-10.06-12-6.89c-6.21,4.11-13.19,11.78-10.95,19.94
				c2.53,9.17,15.07,9.91,19.65,2.08c4.96-8.48-2.94-17.6-11.61-17.98c-8.25-0.35-16.71,5.63-21.68,11.69
				c-3.89,4.75-1.94,14.3,5.64,13.62c11.02-0.99,19.44-7.39,23.32-17.75c2.37-6.31-4.46-10.66-9.81-9.81
				c-8.1,1.28-16.19,2.57-24.29,3.85c2.05,4.86,4.1,9.72,6.15,14.58c4.02-2.74,8.81-5.26,12.31-8.66c4.09-3.96,4.3-10.81-0.47-14.37
				c-4.09-3.06-9.92-2.19-14.72-2.22c-5.9-0.04-11.8-0.08-17.7-0.11c0.71,5.22,1.41,10.45,2.12,15.67
				c6.89-2.13,13.77-4.26,20.66-6.39c8.64-2.67,6.94-15.33-2.12-15.67c-10.05-0.38-20.11-0.75-30.16-1.13c2.3,4,4.59,8,6.89,12
				c1.81-3.35,3.62-6.7,5.43-10.06C118.83,1216.74,105.06,1208.67,100.18,1217.72L100.18,1217.72z"/>
		</g>
	</g>
	<g>
		<g>
			<path class="st18" d="M169.53,1246.18c1.74-0.84,3.64-1.44,5.57-1.67c1.11-0.09,2.23-0.1,3.35-0.04
				c2.33,0.64,2.77-0.94,1.33-4.73c1.17-0.68,2.35-1.37,3.52-2.05c-3.51,1.42-7.94,1.12-11.69,1.45c-4.65,0.41-9.31,0.81-13.96,1.22
				c-10.15,0.89-10.24,16.85,0,15.95c7.44-0.65,14.89-1.26,22.33-1.95c6.86-0.63,14.4-2.66,15.04-10.9
				c1.41-18.13-22.89-16.18-33.54-11.06C152.23,1236.85,160.31,1250.61,169.53,1246.18L169.53,1246.18z"/>
		</g>
	</g>
	<g>
		<g>
			<path class="st18" d="M152.77,1259.08c-4.95,1.44-9.84,1.4-14.95,0.86c-2.29-0.24-4.58-0.57-6.85-0.98
				c-0.89-0.16-2-0.61-2.89-0.61c-0.96-0.01-0.27,0.13-0.35-0.39c0,1.41,0,2.83,0,4.24c-0.32,0.29-0.65,0.57-0.97,0.86
				c-1.34,0.36-2.68,0.73-4.03,1.09c0.41-0.04,0.82-0.07,1.22-0.11c3.94-0.36,7.34-2.76,7.83-6.92c0.44-3.68-1.77-7.96-5.71-8.75
				c-7.54-1.52-16.54-2.94-19.01-11.38c-2.89-9.83-18.29-5.65-15.38,4.24c4.21,14.34,16.58,19.79,30.16,22.52
				c0.71-5.22,1.41-10.45,2.12-15.67c-13.75,1.25-15.39,18.25-3.73,24.21c5.2,2.66,11.88,3,17.59,3.6
				c6.46,0.67,12.92,0.39,19.19-1.43C166.85,1271.61,162.67,1256.21,152.77,1259.08L152.77,1259.08z"/>
		</g>
	</g>
	<g>
		<g>
			<path class="st18" d="M91.95,1231.42c-7.11,10.19-2.41,22.87,5.37,31.07c4.52,4.76,9.84,8.84,14.81,13.13
				c4.77,4.12,9.54,9.37,15.08,12.43c6.17,3.41,12.56,1.34,17.7-2.83c1.91-1.55,3.05-2.78,5.53-3.14c2.95-0.43,5.94-0.48,8.81-1.43
				c5.13-1.68,9.32-4.71,13.47-8.07c3.57-2.89,7.04-6.48,11.43-8.1c7.96-2.95,7.45-15.97-2.12-15.67
				c-5.98,0.18-11.96,0.37-17.94,0.55c-10.27,0.32-10.27,15.6,0,15.95c6.83,0.24,15.15,1.5,21.77-0.53
				c7.57-2.32,10.33-9.79,7.14-16.66c-1.81-3.91-7.45-4.89-10.91-2.86c-4.01,2.34-4.68,6.99-2.86,10.91
				c0.16,0.35,0.33,0.7,0.49,1.05c-0.36-1.34-0.73-2.68-1.09-4.03c-0.02,0.39-0.04,0.79-0.06,1.18c0.36-1.34,0.73-2.68,1.09-4.03
				c0.28-0.27,0.56-0.54,0.84-0.81c-0.91,0.03-1.82,0.06-2.73,0.07c-1.52,0.02-3.04,0.02-4.56,0c-3.04-0.04-6.08-0.15-9.11-0.25
				c0,5.32,0,10.64,0,15.95c5.98-0.18,11.96-0.37,17.94-0.55c-0.71-5.22-1.41-10.45-2.12-15.67c-7.75,2.87-13.12,8.28-19.62,13.1
				c-7.26,5.39-16.37,3.26-23.53,9.09c-0.79,0.64-1.53,1.41-2.36,1.99c-1.18,0.82,0.82,0.7-0.17,0.36c-1.86-0.63-4.1-3.5-5.6-4.8
				c-4.22-3.64-8.43-7.28-12.65-10.92c-4.67-4.03-15.19-11.36-10.24-18.44C111.62,1231.03,97.79,1223.05,91.95,1231.42
				L91.95,1231.42z"/>
		</g>
	</g>
	<g>
		<g>
			<path class="st18" d="M175.65,1232.95c-1.2,0.11-1.48,0.16-0.86,0.16c0.63,0.02,0.34-0.02-0.86-0.13c1.01,0.17-0.1,0-0.49-0.23
				c-0.87-0.75-1.09-0.93-0.66-0.54c0.17,0.15,0.33,0.31,0.47,0.48c-0.44-0.22-1.02-1.53-0.36-0.32c0.6,1.09-0.33,0.22-0.15-0.44
				c-0.06,0.24,0.28,0.88,0.35,1.12c0.23,0.83,0.4,1.68,0.56,2.52c0.79,4.11,5.94,6.83,9.81,5.57c4.38-1.42,6.42-5.41,5.57-9.81
				c-0.69-3.59-1.93-6.95-4.35-9.75c-3.38-3.89-8.42-4.87-13.27-4.02c-4.12,0.72-6.81,5.98-5.57,9.81
				C167.27,1231.81,171.23,1233.72,175.65,1232.95L175.65,1232.95z"/>
		</g>
	</g>
	<g>
		<g>
			<path class="st18" d="M175.84,1229.44c10.27,0,10.28-15.95,0-15.95C165.57,1213.48,165.55,1229.44,175.84,1229.44L175.84,1229.44
				z"/>
		</g>
	</g>
	<g>
		<g>
			<path class="st18" d="M169.9,1215.16c-9.54,0.13-19.09,0.27-28.63,0.4c-4.61,0.06-9.22,0.13-13.82,0.19
				c-2.09,0.03-8.08,1.07-9.72-0.31c-7.79-6.6-19.13,4.63-11.28,11.28c8.09,6.85,19.01,5.01,28.9,4.88
				c11.52-0.16,23.04-0.32,34.56-0.48C180.16,1230.97,180.19,1215.01,169.9,1215.16L169.9,1215.16z"/>
		</g>
	</g>
	<g>
		<g>
			<path class="st18" d="M107.11,1227.14c10.27,0,10.28-15.95,0-15.95C96.85,1211.19,96.83,1227.14,107.11,1227.14L107.11,1227.14z"
				/>
		</g>
	</g>
	<g>
		<g>
			<path class="st18" d="M96.39,1247.24c10.27,0,10.28-15.95,0-15.95C86.13,1231.29,86.11,1247.24,96.39,1247.24L96.39,1247.24z"/>
		</g>
	</g>
	<g>
		<g>
			<path class="st18" d="M88.39,1247.59c-1.25,6.38-0.85,13.35,5.26,17.16c1.92,1.2,4.02,1.38,5.23,2.37
				c2.08,1.7,3.83,4.11,5.66,6.08c7,7.54,18.27-3.76,11.28-11.28c-2.74-2.95-5.35-6.35-8.7-8.65c-1.36-0.93-3.31-2.25-4.99-2.24
				c-0.86-0.29-0.69-0.08,0.52,0.63c0.28,0.4,0.56,0.8,0.84,1.19c0.3,0.17-0.02,0.58,0.3-1.03c0.83-4.22-1.2-8.61-5.57-9.81
				C94.28,1240.94,89.22,1243.34,88.39,1247.59L88.39,1247.59z"/>
		</g>
	</g>
	<g>
		<g>
			<path class="st18" d="M102.71,1269.64c10.27,0,10.28-15.95,0-15.95C92.45,1253.68,92.43,1269.64,102.71,1269.64L102.71,1269.64z"
				/>
		</g>
	</g>
	<g>
		<g>
			<path class="st18" d="M94.36,1266.04c10.72,9.35,21.65,18.46,32.51,27.65c7.79,6.59,19.13-4.64,11.28-11.28
				c-10.86-9.19-21.79-18.3-32.51-27.65C97.94,1248.03,86.61,1259.27,94.36,1266.04L94.36,1266.04z"/>
		</g>
	</g>
	<g>
		<g>
			<path class="st18" d="M126.3,1295.09c0.09,0.13,1.1,1.74,1.06,1.75c-0.15,0.05-0.61-1.92-0.09,0.01c0.07,0.25,0.13,0.5,0.17,0.75
				c0.12,0.62,0.08,0.33-0.11-0.85c-0.09,0.06-0.02,1.83-0.04,2.05c-0.38,4.17,3.94,8.16,7.98,7.98c4.64-0.21,7.58-3.51,7.98-7.98
				c0.36-4.01-0.85-8.47-3.17-11.76c-1.22-1.73-2.66-3.09-4.77-3.67c-1.91-0.53-4.45-0.29-6.15,0.8
				C125.79,1286.35,123.72,1291.45,126.3,1295.09L126.3,1295.09z"/>
		</g>
	</g>
	<g>
		<g>
			<path class="st18" d="M136.81,1308.69c5.09-0.54,9.63-2.46,12.53-6.91c1.3-1.99,2.1-4.24,2.34-6.6c0.12-1.19,0.11-2.24,0.01-3.44
				c-0.07-0.53-0.13-1.06-0.19-1.58c0.02-1.25-0.26-1.08-0.85,0.49c8.61-1.15,17.71-8.29,23.18-14.6
				c6.69-7.73-4.54-19.06-11.28-11.28c-2.65,3.06-5.5,5.64-9.05,7.62c-3.09,1.73-6.47,2.48-9.67,3.95c-3.5,1.61-6.4,4.18-7.66,7.91
				c-0.75,2.23-0.76,4.4-0.54,6.7c0.25,2.59-0.32,1.95,1.18,1.79c-4.28,0.45-7.98,3.34-7.98,7.98
				C128.84,1304.67,132.5,1309.15,136.81,1308.69L136.81,1308.69z"/>
		</g>
	</g>
	<g>
		<g>
			<path class="st18" d="M187.13,1256.24c10.27,0,10.28-15.95,0-15.95C176.87,1240.28,176.85,1256.24,187.13,1256.24L187.13,1256.24
				z"/>
		</g>
	</g>
	<g>
		<g>
			<path class="st18" d="M183.69,1243.6c10.27,0,10.28-15.95,0-15.95C173.42,1227.65,173.4,1243.6,183.69,1243.6L183.69,1243.6z"/>
		</g>
	</g>
	<g>
		<g>
			<path class="st18" d="M157,1292.98c0.51-0.64,1.02-1.27,1.54-1.91c0.78-0.72,1.33-1.58,1.65-2.57c0.5-0.95,0.73-1.98,0.69-3.07
				c0.04-1.1-0.19-2.12-0.69-3.07c-0.32-0.99-0.87-1.84-1.65-2.57c-0.54-0.42-1.08-0.83-1.61-1.25c-1.24-0.72-2.59-1.08-4.03-1.09
				c-0.71,0.09-1.41,0.19-2.12,0.29c-1.35,0.38-2.52,1.06-3.52,2.05c-0.51,0.64-1.02,1.27-1.54,1.91c-0.78,0.72-1.33,1.58-1.65,2.57
				c-0.5,0.95-0.73,1.98-0.69,3.07c-0.04,1.1,0.19,2.12,0.69,3.07c0.32,0.99,0.87,1.84,1.65,2.57c0.54,0.42,1.08,0.83,1.61,1.25
				c1.24,0.72,2.59,1.08,4.03,1.09c0.71-0.09,1.41-0.19,2.12-0.29C154.84,1294.65,156.01,1293.96,157,1292.98L157,1292.98z"/>
		</g>
	</g>
	<g>
		<g>
			<path class="st18" d="M155.55,1290.5c10.27,0,10.28-15.95,0-15.95C145.28,1274.55,145.26,1290.5,155.55,1290.5L155.55,1290.5z"/>
		</g>
	</g>
	<g>
		<g>
			<path class="st18" d="M158.99,1288.4c10.27,0,10.28-15.95,0-15.95C148.73,1272.44,148.71,1288.4,158.99,1288.4L158.99,1288.4z"/>
		</g>
	</g>
	<g>
		<g>
			<path class="st18" d="M162.44,1285.53c10.27,0,10.28-15.95,0-15.95C152.17,1269.57,152.15,1285.53,162.44,1285.53L162.44,1285.53
				z"/>
		</g>
	</g>
	<g>
		<g>
			<path class="st18" d="M167.41,1280.55c10.27,0,10.28-15.95,0-15.95C157.15,1264.59,157.13,1280.55,167.41,1280.55L167.41,1280.55
				z"/>
		</g>
	</g>
	<g>
		<g>
			<path class="st18" d="M166.65,1281.31c10.27,0,10.28-15.95,0-15.95C156.38,1265.36,156.37,1281.31,166.65,1281.31L166.65,1281.31
				z"/>
		</g>
	</g>
	<g>
		<g>
			<path class="st18" d="M165.69,1282.46c10.27,0,10.28-15.95,0-15.95C155.43,1266.51,155.41,1282.46,165.69,1282.46L165.69,1282.46
				z"/>
		</g>
	</g>
	<g>
		<g>
			<path class="st18" d="M165.5,1283.04c10.27,0,10.28-15.95,0-15.95C155.23,1267.08,155.22,1283.04,165.5,1283.04L165.5,1283.04z"
				/>
		</g>
	</g>
	<g>
		<g>
			<path class="st18" d="M155.93,1291.46c10.27,0,10.28-15.95,0-15.95C145.66,1275.51,145.65,1291.46,155.93,1291.46L155.93,1291.46
				z"/>
		</g>
	</g>
	<g>
		<g>
			<path class="st18" d="M147.7,1304.29c10.27,0,10.28-15.95,0-15.95C137.43,1288.33,137.41,1304.29,147.7,1304.29L147.7,1304.29z"
				/>
		</g>
	</g>
	<g>
		<g>
			<path class="st18" d="M149.61,1298.35c10.27,0,10.28-15.95,0-15.95C139.35,1282.4,139.33,1298.35,149.61,1298.35L149.61,1298.35z
				"/>
		</g>
	</g>
	<g>
		<g>
			<path class="st18" d="M148.46,1301.8c10.27,0,10.28-15.95,0-15.95C138.2,1285.84,138.18,1301.8,148.46,1301.8L148.46,1301.8z"/>
		</g>
	</g>
	<g>
		<g>
			<path class="st18" d="M147.12,1309.07c10.27,0,10.28-15.95,0-15.95C136.86,1293.12,136.84,1309.07,147.12,1309.07L147.12,1309.07
				z"/>
		</g>
	</g>
	<g>
		<g>
			<path class="st18" d="M144.06,1309.45c10.27,0,10.28-15.95,0-15.95C133.79,1293.5,133.78,1309.45,144.06,1309.45L144.06,1309.45z
				"/>
		</g>
	</g>
	<g>
		<g>
			<path class="st18" d="M140.61,1309.26c10.27,0,10.28-15.95,0-15.95C130.35,1293.31,130.33,1309.26,140.61,1309.26L140.61,1309.26
				z"/>
		</g>
	</g>
	<g>
		<g>
			<path class="st18" d="M135.45,1310.03c10.27,0,10.28-15.95,0-15.95C125.18,1294.07,125.16,1310.03,135.45,1310.03L135.45,1310.03
				z"/>
		</g>
	</g>
	<g>
		<g>
			<path class="st18" d="M147.21,1309.23c2.59,0,2.59-4.02,0-4.02C144.62,1305.21,144.61,1309.23,147.21,1309.23L147.21,1309.23z"/>
		</g>
	</g>
	<g>
		<g>
			<path class="st18" d="M154.01,1306.74c2.59,0,2.59-4.02,0-4.02C151.43,1302.72,151.42,1306.74,154.01,1306.74L154.01,1306.74z"/>
		</g>
	</g>
	<g>
		<g>
			<path class="st18" d="M153.63,1302.34c2.59,0,2.59-4.02,0-4.02C151.04,1298.32,151.04,1302.34,153.63,1302.34L153.63,1302.34z"/>
		</g>
	</g>
	<g>
		<g>
			<path class="st18" d="M153.48,1300.69c-0.96,0.26-1.91,0.51-2.87,0.77c-0.49,0.13-0.95,0.49-1.2,0.92
				c-0.15,0.23-0.23,0.48-0.24,0.75c-0.06,0.27-0.05,0.53,0.04,0.8c0.16,0.49,0.46,0.96,0.92,1.2c0.48,0.25,1.01,0.35,1.55,0.2
				c0.96-0.26,1.91-0.51,2.87-0.77c0.49-0.13,0.95-0.49,1.2-0.92c0.15-0.23,0.23-0.48,0.24-0.75c0.06-0.27,0.05-0.53-0.04-0.8
				c-0.16-0.49-0.46-0.96-0.92-1.2C154.55,1300.64,154.01,1300.54,153.48,1300.69L153.48,1300.69z"/>
		</g>
	</g>
	<g>
		<g>
			<path class="st18" d="M145.48,1305.59c-1.02,0-2.04,0-3.06,0c-0.52,0-1.06,0.22-1.42,0.59c-0.35,0.35-0.61,0.92-0.59,1.42
				c0.02,0.52,0.19,1.06,0.59,1.42c0.39,0.36,0.88,0.59,1.42,0.59c1.02,0,2.04,0,3.06,0c0.52,0,1.06-0.22,1.42-0.59
				c0.35-0.35,0.61-0.92,0.59-1.42c-0.02-0.52-0.19-1.06-0.59-1.42C146.51,1305.82,146.03,1305.59,145.48,1305.59L145.48,1305.59z"
				/>
		</g>
	</g>
	<g>
		<g>
			<path class="st18" d="M146.74,1308.66c0.51,0.06,1.02,0.13,1.53,0.19c0.28,0.01,0.53-0.05,0.77-0.17
				c0.25-0.08,0.46-0.22,0.65-0.42c0.2-0.18,0.33-0.4,0.42-0.65c0.13-0.24,0.18-0.5,0.17-0.77c-0.02-0.18-0.05-0.36-0.07-0.53
				c-0.1-0.34-0.27-0.64-0.52-0.89c-0.14-0.1-0.27-0.21-0.41-0.31c-0.31-0.18-0.65-0.27-1.01-0.27c-0.51-0.06-1.02-0.13-1.53-0.19
				c-0.28-0.01-0.53,0.05-0.77,0.17c-0.25,0.08-0.46,0.22-0.65,0.42c-0.2,0.18-0.33,0.4-0.42,0.65c-0.13,0.24-0.18,0.5-0.17,0.77
				c0.02,0.18,0.05,0.36,0.07,0.53c0.1,0.34,0.27,0.64,0.52,0.89c0.14,0.1,0.27,0.21,0.41,0.31
				C146.04,1308.56,146.38,1308.65,146.74,1308.66L146.74,1308.66z"/>
		</g>
	</g>
	<g>
		<g>
			<path class="st18" d="M148.03,1305.12c-0.24,0.13-0.48,0.25-0.73,0.36c0.16-0.07,0.32-0.14,0.48-0.2
				c-0.62,0.26-1.26,0.43-1.92,0.52c0.18-0.02,0.36-0.05,0.53-0.07c-0.66,0.08-1.33,0.08-1.99,0c0.18,0.02,0.36,0.05,0.53,0.07
				c-0.24-0.03-0.48-0.08-0.71-0.14c-0.52-0.12-1.08-0.07-1.55,0.2c-0.42,0.24-0.81,0.72-0.92,1.2c-0.23,1.03,0.31,2.21,1.4,2.47
				c2.34,0.55,4.81,0.23,6.92-0.95c0.92-0.51,1.3-1.85,0.72-2.75C150.18,1304.91,149.02,1304.57,148.03,1305.12L148.03,1305.12z"/>
		</g>
	</g>
	<g>
		<g>
			<path class="st18" d="M129.57,1308.57c0.38-0.26,0.77-0.51,1.15-0.77c0.23-0.13,0.42-0.3,0.56-0.52c0.18-0.19,0.3-0.42,0.36-0.68
				c0.08-0.27,0.1-0.53,0.04-0.8c-0.01-0.27-0.09-0.52-0.24-0.75c-0.1-0.14-0.21-0.27-0.31-0.41c-0.25-0.25-0.55-0.42-0.89-0.52
				c-0.18-0.02-0.36-0.05-0.53-0.07c-0.36,0-0.7,0.09-1.01,0.27c-0.38,0.26-0.77,0.51-1.15,0.77c-0.23,0.13-0.42,0.3-0.56,0.52
				c-0.18,0.19-0.3,0.42-0.36,0.68c-0.08,0.27-0.1,0.53-0.04,0.8c0.01,0.27,0.09,0.52,0.24,0.75c0.1,0.14,0.21,0.27,0.31,0.41
				c0.25,0.25,0.55,0.42,0.89,0.52c0.18,0.02,0.36,0.05,0.53,0.07C128.92,1308.85,129.26,1308.75,129.57,1308.57L129.57,1308.57z"/>
		</g>
	</g>
	<g>
		<g>
			<path class="st18" d="M128.75,1306.93c1.34,0,2.68,0,4.02,0c0.52,0,1.06-0.22,1.42-0.59c0.35-0.35,0.61-0.92,0.59-1.42
				c-0.02-0.52-0.19-1.06-0.59-1.42c-0.39-0.36-0.88-0.59-1.42-0.59c-1.34,0-2.68,0-4.02,0c-0.52,0-1.06,0.22-1.42,0.59
				c-0.35,0.35-0.61,0.92-0.59,1.42c0.02,0.52,0.19,1.06,0.59,1.42C127.72,1306.71,128.2,1306.93,128.75,1306.93L128.75,1306.93z"/>
		</g>
	</g>
	<g>
		<g>
			<path class="st18" d="M131.48,1309.33c1.79-0.89,3.58-1.78,5.36-2.67c0.43-0.22,0.8-0.75,0.92-1.2c0.13-0.48,0.07-1.12-0.2-1.55
				c-0.62-0.96-1.74-1.22-2.75-0.72c-1.79,0.89-3.58,1.78-5.36,2.67c-0.43,0.22-0.8,0.75-0.92,1.2c-0.13,0.48-0.07,1.12,0.2,1.55
				C129.35,1309.57,130.47,1309.83,131.48,1309.33L131.48,1309.33z"/>
		</g>
	</g>
	<g>
		<g>
			<path class="st18" d="M132.38,1307.32c2.59,0,2.59-4.02,0-4.02C129.8,1303.3,129.79,1307.32,132.38,1307.32L132.38,1307.32z"/>
		</g>
	</g>
	<g>
		<g>
			<path class="st18" d="M186.28,1260.58c-4.52,3.78-9.05,7.57-13.57,11.35c-0.83,0.7-0.72,2.12,0,2.84c0.82,0.82,2.01,0.7,2.84,0
				c4.52-3.78,9.05-7.57,13.57-11.35c0.83-0.7,0.72-2.12,0-2.84C188.3,1259.75,187.12,1259.88,186.28,1260.58L186.28,1260.58z"/>
		</g>
	</g>
	<g>
		<g>
			<path class="st18" d="M189.73,1259.48c-6.27,5.03-12.53,10.05-18.8,15.08c-0.85,0.68-0.71,2.13,0,2.84
				c0.84,0.84,1.99,0.68,2.84,0c6.27-5.03,12.53-10.05,18.8-15.08c0.85-0.68,0.71-2.13,0-2.84
				C191.74,1258.64,190.58,1258.79,189.73,1259.48L189.73,1259.48z"/>
		</g>
	</g>
	<g>
		<g>
			<path class="st18" d="M177.04,1269.57c-2.06,2.14-4.13,4.29-6.19,6.43c-0.73,0.76-0.81,2.1,0,2.84c0.79,0.73,2.06,0.81,2.84,0
				c2.06-2.14,4.13-4.29,6.19-6.43c0.73-0.76,0.81-2.1,0-2.84C179.09,1268.84,177.82,1268.76,177.04,1269.57L177.04,1269.57z"/>
		</g>
	</g>
	<g>
		<g>
			<path class="st18" d="M101.95,1215.28c20.55,0.12,41.09,0.24,61.64,0.36c5.8,0.03,11.6,0.07,17.4,0.1c0-1.34,0-2.68,0-4.02
				c-10.39,0.15-20.78,0.3-31.17,0.45c-5.15,0.07-10.31,0.15-15.46,0.22c-5.06,0.07-10.11,0.1-15.12,0.91
				c-2.24,0.36-1.71,4.04,0.53,3.95c10.22-0.4,20.44-0.55,30.67-0.43c5.11,0.06,10.22,0.18,15.33,0.37c2.47,0.09,4.94,0.2,7.41,0.32
				c1.32,0.07,2.64,0.14,3.95,0.21c0.54,0.03,1.15-0.01,1.69,0.11c0.86,0.19,0.23,0.29,0.57-0.4c-1.12,2.32,2.34,4.36,3.47,2.03
				c0.82-1.68,0.4-3.6-1.15-4.71c-1.75-1.25-4.25-1.04-6.3-1.15c-4.45-0.24-8.9-0.43-13.35-0.56c-8.98-0.28-17.97-0.36-26.96-0.23
				c-5.11,0.07-10.22,0.21-15.33,0.41c0.18,1.32,0.36,2.63,0.53,3.95c4.88-0.79,9.87-0.7,14.8-0.78c5.07-0.07,10.14-0.15,15.21-0.22
				c10.22-0.15,20.45-0.3,30.67-0.44c2.59-0.04,2.59-4.01,0-4.02c-20.55-0.12-41.09-0.24-61.64-0.36c-5.8-0.03-11.6-0.07-17.4-0.1
				C99.36,1211.24,99.36,1215.26,101.95,1215.28L101.95,1215.28z"/>
		</g>
	</g>
	<line class="st19" x1="101.28" y1="1211.6" x2="181.68" y2="1211.6"/>
	<g>
		<g>
			<path class="st4" d="M93.17,1063.76c1.01,0.56,2.03,1.11,3.04,1.67c0.46,0.26,1.03,0.34,1.55,0.2c0.47-0.13,0.97-0.49,1.2-0.92
				c0.25-0.47,0.37-1.03,0.2-1.55c-0.16-0.49-0.46-0.95-0.92-1.2c-1.01-0.56-2.03-1.11-3.04-1.67c-0.46-0.26-1.03-0.34-1.55-0.2
				c-0.47,0.13-0.97,0.49-1.2,0.92c-0.25,0.47-0.37,1.03-0.2,1.55C92.41,1063.05,92.71,1063.5,93.17,1063.76L93.17,1063.76z"/>
		</g>
	</g>
	<g>
		<g>
			<path class="st4" d="M95.13,1066c0.48,0.24,0.96,0.48,1.44,0.71c0.23,0.15,0.48,0.23,0.75,0.24c0.27,0.06,0.53,0.05,0.8-0.04
				c0.26-0.06,0.49-0.18,0.68-0.36c0.22-0.14,0.39-0.33,0.52-0.56c0.07-0.16,0.14-0.32,0.2-0.48c0.1-0.36,0.1-0.71,0-1.07
				c-0.07-0.16-0.14-0.32-0.2-0.48c-0.18-0.3-0.42-0.54-0.72-0.72c-0.48-0.24-0.96-0.48-1.44-0.71c-0.23-0.15-0.48-0.23-0.75-0.24
				c-0.27-0.06-0.53-0.05-0.8,0.04c-0.26,0.06-0.49,0.18-0.68,0.36c-0.22,0.14-0.39,0.33-0.52,0.56c-0.07,0.16-0.14,0.32-0.2,0.48
				c-0.1,0.36-0.1,0.71,0,1.07c0.07,0.16,0.14,0.32,0.2,0.48C94.59,1065.58,94.83,1065.82,95.13,1066L95.13,1066z"/>
		</g>
	</g>
	<g>
		<g>
			<path class="st4" d="M96.59,1067.84c0.48,0,0.96,0,1.44,0c0.28,0.01,0.53-0.05,0.77-0.17c0.25-0.08,0.46-0.22,0.65-0.42
				c0.2-0.18,0.33-0.4,0.42-0.65c0.13-0.24,0.18-0.5,0.17-0.77c-0.02-0.18-0.05-0.36-0.07-0.53c-0.1-0.34-0.27-0.64-0.52-0.89
				c-0.14-0.1-0.27-0.21-0.41-0.31c-0.31-0.18-0.65-0.27-1.01-0.27c-0.48,0-0.96,0-1.44,0c-0.28-0.01-0.53,0.05-0.77,0.17
				c-0.25,0.08-0.46,0.22-0.65,0.42c-0.2,0.18-0.33,0.4-0.42,0.65c-0.13,0.24-0.18,0.5-0.17,0.77c0.02,0.18,0.05,0.36,0.07,0.53
				c0.1,0.34,0.27,0.64,0.52,0.89c0.14,0.1,0.27,0.21,0.41,0.31C95.88,1067.75,96.22,1067.84,96.59,1067.84L96.59,1067.84z"/>
		</g>
	</g>
	<g>
		<g>
			<path class="st4" d="M96.58,1069.27c0.19,0.24,0.38,0.48,0.58,0.72c0.18,0.2,0.4,0.33,0.65,0.42c0.24,0.13,0.5,0.18,0.77,0.17
				c0.28,0.01,0.53-0.05,0.77-0.17c0.25-0.08,0.46-0.22,0.65-0.42c0.1-0.14,0.21-0.27,0.31-0.41c0.18-0.31,0.27-0.65,0.27-1.01
				c-0.02-0.18-0.05-0.36-0.07-0.53c-0.1-0.34-0.27-0.64-0.52-0.89c-0.19-0.24-0.38-0.48-0.58-0.72c-0.18-0.2-0.4-0.33-0.65-0.42
				c-0.24-0.13-0.5-0.18-0.77-0.17c-0.28-0.01-0.53,0.05-0.77,0.17c-0.25,0.08-0.46,0.22-0.65,0.42c-0.1,0.14-0.21,0.27-0.31,0.41
				c-0.18,0.31-0.27,0.65-0.27,1.01c0.02,0.18,0.05,0.36,0.07,0.53C96.16,1068.73,96.33,1069.02,96.58,1069.27L96.58,1069.27z"/>
		</g>
	</g>
	<g>
		<g>
			<path class="st4" d="M102.61,1066.24c0.06,0,0.13,0,0.19,0.01c-0.18-0.02-0.36-0.05-0.53-0.07c0.09,0.01,0.19,0.04,0.27,0.08
				c-0.16-0.07-0.32-0.14-0.48-0.2c0.09,0.04,0.17,0.09,0.25,0.14c-0.14-0.1-0.27-0.21-0.41-0.31c0.08,0.06,0.15,0.13,0.21,0.21
				c-0.1-0.14-0.21-0.27-0.31-0.41c0.05,0.07,0.1,0.15,0.14,0.23c-0.07-0.16-0.14-0.32-0.2-0.48c0.03,0.07,0.05,0.14,0.06,0.21
				c0.06,0.26,0.18,0.49,0.36,0.68c0.14,0.22,0.33,0.39,0.56,0.52c0.23,0.15,0.48,0.23,0.75,0.24c0.27,0.06,0.53,0.05,0.8-0.04
				c0.16-0.07,0.32-0.14,0.48-0.2c0.3-0.18,0.54-0.42,0.72-0.72c0.07-0.16,0.14-0.32,0.2-0.48c0.1-0.36,0.1-0.71,0-1.07
				c-0.01-0.07-0.03-0.13-0.06-0.2c-0.08-0.19-0.17-0.45-0.29-0.65c-0.13-0.2-0.27-0.38-0.43-0.56c-0.04-0.05-0.09-0.09-0.15-0.13
				c-0.16-0.13-0.36-0.31-0.56-0.41c-0.21-0.11-0.43-0.2-0.65-0.28c-0.07-0.02-0.13-0.04-0.2-0.05c-0.19-0.03-0.38-0.06-0.57-0.08
				c-0.02,0-0.03,0-0.05,0c-0.04,0-0.07,0-0.11,0c-0.28-0.01-0.53,0.05-0.77,0.17c-0.25,0.08-0.46,0.22-0.65,0.42
				c-0.2,0.18-0.33,0.4-0.42,0.65c-0.13,0.24-0.18,0.5-0.17,0.77c0.02,0.18,0.05,0.36,0.07,0.53c0.1,0.34,0.27,0.64,0.52,0.89
				c0.14,0.1,0.27,0.21,0.41,0.31C101.91,1066.15,102.25,1066.24,102.61,1066.24L102.61,1066.24z"/>
		</g>
	</g>
	<g>
		<g>
			<path class="st4" d="M102.58,1069.2c0.57-0.17,1.14-0.34,1.72-0.51c0.26-0.06,0.49-0.18,0.68-0.36c0.22-0.14,0.39-0.33,0.52-0.56
				c0.07-0.16,0.14-0.32,0.2-0.48c0.08-0.27,0.1-0.53,0.04-0.8c0-0.18-0.05-0.35-0.14-0.51c-0.08-0.25-0.22-0.46-0.42-0.65
				c-0.14-0.1-0.27-0.21-0.41-0.31c-0.31-0.18-0.65-0.27-1.01-0.27c-0.38,0.03-0.76,0.05-1.14,0.08c-0.28-0.01-0.53,0.05-0.77,0.17
				c-0.25,0.08-0.46,0.22-0.65,0.42c-0.2,0.18-0.33,0.4-0.42,0.65c-0.13,0.24-0.18,0.5-0.17,0.77c0.02,0.18,0.05,0.36,0.07,0.53
				c0.1,0.34,0.27,0.64,0.52,0.89c0.14,0.1,0.27,0.21,0.41,0.31c0.31,0.18,0.65,0.27,1.01,0.27c0.38-0.03,0.76-0.06,1.14-0.08
				c-0.18-1.32-0.36-2.63-0.53-3.95c-0.57,0.17-1.14,0.34-1.72,0.51c-0.26,0.06-0.49,0.18-0.68,0.36c-0.22,0.14-0.39,0.33-0.52,0.56
				c-0.15,0.23-0.23,0.48-0.24,0.75c-0.06,0.27-0.05,0.53,0.04,0.8c0.07,0.16,0.14,0.32,0.2,0.48c0.18,0.3,0.42,0.54,0.72,0.72
				c0.16,0.07,0.32,0.14,0.48,0.2C101.86,1069.3,102.22,1069.3,102.58,1069.2L102.58,1069.2z"/>
		</g>
	</g>
	<g>
		<g>
			<path class="st4" d="M93.86,1063.24c2.59,0,2.59-4.02,0-4.02C91.27,1059.22,91.27,1063.24,93.86,1063.24L93.86,1063.24z"/>
		</g>
	</g>
	<g>
		<g>
			<path class="st4" d="M92.83,1063.51c2.59,0,2.59-4.02,0-4.02C90.24,1059.49,90.24,1063.51,92.83,1063.51L92.83,1063.51z"/>
		</g>
	</g>
	<g>
		<g>
			<path class="st4" d="M90.75,1060.88c0.64,0,1.28,0,1.91,0c0.35,0,0.69-0.31,0.67-0.67c-0.02-0.36-0.29-0.67-0.67-0.67
				c-0.64,0-1.28,0-1.91,0c-0.35,0-0.69,0.31-0.67,0.67C90.09,1060.57,90.37,1060.88,90.75,1060.88L90.75,1060.88z"/>
		</g>
	</g>
	<g>
		<g>
			<path class="st4" d="M90.75,1060.85c0.5,0.04,1,0.09,1.5,0.13c0.16,0.01,0.36-0.08,0.47-0.2c0.12-0.12,0.2-0.31,0.2-0.47
				c-0.01-0.17-0.06-0.35-0.2-0.47c-0.14-0.13-0.29-0.18-0.47-0.2c-0.5-0.04-1-0.09-1.5-0.13c-0.16-0.01-0.36,0.08-0.47,0.2
				c-0.12,0.12-0.2,0.31-0.2,0.47c0.01,0.17,0.06,0.35,0.2,0.47C90.41,1060.78,90.56,1060.84,90.75,1060.85L90.75,1060.85z"/>
		</g>
	</g>
	<g>
		<g>
			<path class="st4" d="M92.33,1059.5c-0.45-0.01-0.89-0.02-1.34-0.03c-0.17,0-0.36,0.08-0.47,0.2c-0.12,0.12-0.2,0.31-0.2,0.47
				c0.02,0.37,0.29,0.66,0.67,0.67c0.45,0.01,0.89,0.02,1.34,0.03c0.17,0,0.36-0.08,0.47-0.2c0.12-0.12,0.2-0.31,0.2-0.47
				C92.98,1059.8,92.7,1059.51,92.33,1059.5L92.33,1059.5z"/>
		</g>
	</g>
	<g>
		<g>
			<path class="st4" d="M167.37,1077.24c2.59,0,2.59-4.02,0-4.02C164.78,1073.22,164.78,1077.24,167.37,1077.24L167.37,1077.24z"/>
		</g>
	</g>
	<g>
		<g>
			<path class="st4" d="M185.91,1062.78c-0.79,0.68-1.57,1.37-2.36,2.05c1.05,0.81,2.1,1.62,3.16,2.44
				c1.14-1.96-0.84-4.19-2.92-3.56c-0.93,0.28-1.64,1.16-1.81,2.1c-0.09,0.52-0.07,0.97,0.02,1.49c0.03,0.15,0.06,0.31,0.1,0.46
				c0.1,0.33,0.05-0.08,0.03,0.13c-0.03,0.38-0.12,0.71-0.34,1.17c-0.31,0.62-0.63,1.24-0.95,1.85c-0.67,1.3-1.34,2.59-2.01,3.89
				c-0.48,0.93-0.27,2.22,0.72,2.75c0.92,0.49,2.24,0.28,2.75-0.72c0.93-1.79,1.86-3.59,2.78-5.38c0.5-0.98,0.94-1.96,1.05-3.07
				c0.06-0.57-0.02-1.12-0.15-1.68c-0.02-0.09-0.05-0.18-0.07-0.27c-0.03-0.15-0.03-0.12,0.01,0.07c-0.14,1.24-2.57,1.35-2.82,0.1
				c0-0.36,0-0.71,0-1.07c0.04-0.09,0.09-0.18,0.13-0.27c-0.5,0.87-0.27,1.99,0.52,2.59c0.82,0.64,1.87,0.51,2.64-0.16
				c0.79-0.68,1.57-1.37,2.36-2.05c0.8-0.69,0.76-2.14,0-2.84C187.91,1062,186.76,1062.04,185.91,1062.78L185.91,1062.78z"/>
		</g>
	</g>
	<g>
		<g>
			<path class="st4" d="M167.61,1077.38c0.76-0.11,1.53-0.22,2.29-0.33c0.26-0.06,0.49-0.18,0.68-0.36
				c0.22-0.14,0.39-0.33,0.52-0.56c0.15-0.23,0.23-0.48,0.24-0.75c0.06-0.27,0.05-0.53-0.04-0.8c-0.16-0.49-0.46-0.96-0.92-1.2
				c-0.16-0.07-0.32-0.14-0.48-0.2c-0.36-0.1-0.71-0.1-1.07,0c-0.76,0.11-1.53,0.22-2.29,0.33c-0.26,0.06-0.49,0.18-0.68,0.36
				c-0.22,0.14-0.39,0.33-0.52,0.56c-0.15,0.23-0.23,0.48-0.24,0.75c-0.06,0.27-0.05,0.53,0.04,0.8c0.16,0.49,0.46,0.96,0.92,1.2
				c0.16,0.07,0.32,0.14,0.48,0.2C166.9,1077.47,167.26,1077.47,167.61,1077.38L167.61,1077.38z"/>
		</g>
	</g>
	<g>
		<g>
			<path class="st4" d="M179.92,1077.61c-0.08-0.98-0.17-1.96-0.25-2.95c-0.01-0.07-3.4-0.08-2.94-0.07
				c-2.37-0.03-4.74-0.03-7.11-0.03c-2.37,0-4.74,0-7.11,0.03c-0.29,0-2.95,0.05-2.94,0.07c0.08,0.98,0.17,1.96,0.25,2.95
				c0.01,0.07,3.4,0.08,2.94,0.07c2.37,0.03,4.74,0.03,7.11,0.03c2.37,0,4.74,0,7.11-0.03
				C177.26,1077.68,179.92,1077.63,179.92,1077.61L179.92,1077.61z"/>
		</g>
	</g>
	<g>
		<g>
			<path class="st4" d="M172.57,1059.42c0.22,1.38-1.02,2.3-1.89,3.19c-1.04,1.06-2.09,2.12-3.13,3.18
				c0.12-0.12,3.23,0.07,2.94,0.07c2.37,0.03,4.74,0.03,7.11,0.03c2.37,0,4.74,0,7.11-0.03c0.52-0.01,2.62,0.26,2.94-0.07
				c1.04-1.06,2.09-2.12,3.13-3.18c0.87-0.89,2.11-1.8,1.89-3.19c-0.05-0.34-9.26-0.1-10.05-0.1
				C181.87,1059.32,172.59,1059.58,172.57,1059.42L172.57,1059.42z"/>
		</g>
	</g>
	<g>
		<g>
			<path class="st4" d="M167.1,1067.41c-0.04,0.6-0.34,1.13-0.82,1.49c0.29,0.03,0.58,0.04,0.87,0.04c0.69,0.02,1.39,0.03,2.08,0.03
				c2.37,0.03,4.74,0.03,7.11,0.03c2.37,0,4.74,0,7.11-0.03c0.52-0.01,1.05-0.01,1.57-0.02c0.46,0.01,0.92-0.01,1.37-0.05
				c0.49-0.36,0.78-0.89,0.82-1.49c-0.29-0.03-0.58-0.04-0.87-0.04c-0.69-0.02-1.39-0.03-2.08-0.03c-2.37-0.03-4.74-0.03-7.11-0.03
				c-2.37,0-4.74,0-7.11,0.03C169.75,1067.34,167.11,1067.32,167.1,1067.41L167.1,1067.41z"/>
		</g>
	</g>
	<g>
		<g>
			<path class="st20" d="M175.2,1054.12c-0.11,1.01-0.46,1.96-1.09,2.76c-0.31,0.4-0.67,0.75-1.08,1.04
				c-0.07,0.05-0.14,0.09-0.21,0.14c-0.26,0.1-0.29,0.15-0.09,0.14c0.18,0.11,0.68,0.07,0.89,0.09c0.96,0.1,1.99,0.06,2.94,0.07
				c2.37,0.03,4.74,0.03,7.11,0.03c2.37,0,4.74,0,7.11-0.03c0.3,0,2.93,0.04,2.94-0.07c0.06-0.43,0.12-0.86,0.17-1.29
				c-0.01,0.08-9.29-0.1-10.05-0.1c-2.37,0-4.74,0-7.11,0.03c-0.3,0-2.93-0.04-2.94,0.07c-0.06,0.43-0.12,0.86-0.17,1.29
				c6.7,0,13.4,0,20.1,0c-0.24-0.03-0.53-0.01-0.77-0.08c-0.39-0.11-0.12-0.09,0.17-0.29c0.41-0.29,0.77-0.64,1.08-1.04
				c0.63-0.8,0.98-1.75,1.09-2.76c0,0.03-9.3-0.1-10.05-0.1c-2.37,0-4.74,0-7.11,0.03C177.85,1054.06,175.21,1054.02,175.2,1054.12
				L175.2,1054.12z"/>
		</g>
	</g>
	<g>
		<g>
			<path class="st20" d="M88.53,1054.26c0.62,1.09,1.24,2.18,1.86,3.27c0.09,0.16,3.27,0.07,2.94,0.07
				c2.37,0.03,4.74,0.03,7.11,0.03c2.37,0,4.74,0,7.11-0.03c0.52-0.01,1.05-0.01,1.57-0.02c0.46,0.01,0.92-0.01,1.37-0.05
				c-0.62-1.09-1.24-2.18-1.86-3.27c-0.09-0.16-3.27-0.07-2.94-0.07c-2.37-0.03-4.74-0.03-7.11-0.03c-2.37,0-4.74,0-7.11,0.03
				c-0.52,0.01-1.05,0.01-1.57,0.02C89.44,1054.2,88.98,1054.22,88.53,1054.26L88.53,1054.26z"/>
		</g>
	</g>
	<g>
		<g>
			<path class="st20" d="M88.78,1055.59c0.16,1.15,0.9,2.11,1.98,2.54c0.29,0.03,0.58,0.04,0.87,0.04c0.69,0.02,1.39,0.03,2.08,0.03
				c2.37,0.03,4.74,0.03,7.11,0.03c2.37,0,4.74,0,7.11-0.03c0.52-0.01,1.05-0.01,1.57-0.02c0.46,0.01,0.92-0.01,1.37-0.05
				c-1.08-0.43-1.82-1.39-1.98-2.54c-0.01-0.08-3.39-0.08-2.94-0.07c-2.37-0.03-4.74-0.03-7.11-0.03c-2.37,0-4.74,0-7.11,0.03
				C91.44,1055.52,88.78,1055.59,88.78,1055.59L88.78,1055.59z"/>
		</g>
	</g>
	<g>
		<g>
			<path class="st20" d="M94.41,1054.92c0.06,0.67,0.11,1.34,0.17,2.01c0.01,0.07,3.4,0.08,2.94,0.07c2.37,0.03,4.74,0.03,7.11,0.03
				c2.37,0,4.74,0,7.11-0.03c0.29,0,2.95-0.05,2.94-0.07c-0.06-0.67-0.11-1.34-0.17-2.01c-0.01-0.07-3.4-0.08-2.94-0.07
				c-2.37-0.03-4.74-0.03-7.11-0.03c-2.37,0-4.74,0-7.11,0.03C97.06,1054.85,94.4,1054.89,94.41,1054.92L94.41,1054.92z"/>
		</g>
	</g>
	<g>
		<g>
			<path class="st20" d="M94.92,1055.78c0.15,0.99,0.3,1.98,0.45,2.97c0.01,0.09,3.39,0.08,2.94,0.07c2.37,0.03,4.74,0.03,7.11,0.03
				c2.37,0,4.74,0,7.11-0.03c0.29,0,2.94-0.07,2.94-0.07c-0.15-0.99-0.3-1.98-0.45-2.97c-0.01-0.09-3.39-0.08-2.94-0.07
				c-2.37-0.03-4.74-0.03-7.11-0.03c-2.37,0-4.74,0-7.11,0.03C97.58,1055.72,94.92,1055.79,94.92,1055.78L94.92,1055.78z"/>
		</g>
	</g>
	<g>
		<g>
			<path class="st21" d="M89.95,1051.08c0.12,0.96,0.23,1.92,0.35,2.88c0.01,0.08,3.39,0.08,2.94,0.07
				c2.37,0.03,4.74,0.03,7.11,0.03c2.37,0,4.74,0,7.11-0.03c0.29,0,2.94-0.06,2.94-0.07c-0.12-0.96-0.23-1.92-0.35-2.88
				c-0.01-0.08-3.39-0.08-2.94-0.07c-2.37-0.03-4.74-0.03-7.11-0.03c-2.37,0-4.74,0-7.11,0.03
				C92.61,1051.01,89.95,1051.07,89.95,1051.08L89.95,1051.08z"/>
		</g>
	</g>
	<g>
		<g>
			<path class="st21" d="M93.65,1050.99c-0.06,0.99-0.13,1.98-0.19,2.97c0,0.02,9.3,0.1,10.05,0.1c2.37,0,4.74,0,7.11-0.03
				c0.52-0.01,1.05-0.01,1.57-0.02c0.46,0.01,0.92-0.01,1.37-0.05c0.49-1.02,0.99-2.05,1.48-3.07c-6.7,0-13.4,0-20.1,0
				c0.04,0.39,0.08,0.77,0.12,1.16c0.01,0.08,3.39,0.08,2.94,0.07c2.37,0.03,4.74,0.03,7.11,0.03c2.37,0,4.74,0,7.11-0.03
				c0.29,0,2.95-0.06,2.94-0.07c-0.04-0.39-0.08-0.77-0.12-1.16c-0.01-0.08-3.39-0.08-2.94-0.07c-2.37-0.03-4.74-0.03-7.11-0.03
				c-2.37,0-4.74,0-7.11,0.03c-0.52,0.01-1.05,0.01-1.57,0.02c-0.46-0.01-0.92,0.01-1.37,0.05c-0.49,1.02-0.99,2.05-1.48,3.07
				c6.7,0,13.4,0,20.1,0c0.06-0.99,0.13-1.98,0.19-2.97c0-0.02-9.3-0.1-10.05-0.1c-2.37,0-4.74,0-7.11,0.03
				C96.3,1050.93,93.65,1050.91,93.65,1050.99L93.65,1050.99z"/>
		</g>
	</g>
	<g>
		<g>
			<path class="st1" d="M111.9,1051.93c16.24,0.11,32.48,0.21,48.73,0.32c0-1.34,0-2.68,0-4.02c-4.99,0.48-9.98,0.97-14.97,1.45
				c-2.52,0.24-2.63,4.09,0,4.02c3.47-0.1,6.94-0.2,10.41-0.3c2.58-0.07,2.59-3.97,0-4.02c-4.93-0.1-9.86-0.2-14.79-0.3
				c-2.59-0.05-2.59,3.97,0,4.02c4.93,0.1,9.86,0.2,14.79,0.3c0-1.34,0-2.68,0-4.02c-3.47,0.1-6.94,0.2-10.41,0.3
				c0,1.34,0,2.68,0,4.02c4.99-0.48,9.98-0.97,14.97-1.45c2.53-0.24,2.64-4,0-4.02c-16.24-0.11-32.48-0.21-48.73-0.32
				C109.31,1047.89,109.31,1051.91,111.9,1051.93L111.9,1051.93z"/>
		</g>
	</g>
	<g>
		<g>
			<path class="st1" d="M153.65,1053.97c0.19-2.49,0.37-4.98,0.56-7.47c0-0.01-9.3-0.1-10.05-0.1c-0.75,0-10.03-0.16-10.05,0.1
				c-0.19,2.49-0.37,4.98-0.56,7.47c0,0.01,9.3,0.1,10.05,0.1C144.35,1054.07,153.63,1054.22,153.65,1053.97L153.65,1053.97z"/>
		</g>
	</g>
	<g>
		<g>
			<path class="st1" d="M144.92,1054.15c-0.14-3.83-0.29-7.66-0.43-11.49c-0.01-0.4-20.1,0.1-20.1,0c0.14,3.83,0.29,7.66,0.43,11.49
				C124.83,1054.55,144.91,1054.05,144.92,1054.15L144.92,1054.15z"/>
		</g>
	</g>
	<g>
		<g>
			<path class="st1" d="M132.07,1054.15c-0.28-4.78-0.55-9.57-0.83-14.35c-0.03-0.53-20.09,0.23-20.1,0
				c0.28,4.78,0.55,9.57,0.83,14.35C112,1054.68,132.06,1053.92,132.07,1054.15L132.07,1054.15z"/>
		</g>
	</g>
	<g>
		<g>
			<path class="st1" d="M115.2,1053.96c0.05-3,0.11-6,0.16-9c0-0.03-20.09-0.28-20.1,0c-0.05,3-0.11,6-0.16,9
				C95.1,1053.98,115.2,1054.23,115.2,1053.96L115.2,1053.96z"/>
		</g>
	</g>
	<g>
		<g>
			<path class="st1" d="M107.43,1053.98c0.5-3.13,0.99-6.27,1.49-9.4c-0.02,0.11-9.29-0.1-10.05-0.1c-0.78,0-9.99-0.3-10.05,0.1
				c-0.5,3.13-0.99,6.27-1.49,9.4c0.02-0.11,9.29,0.1,10.05,0.1C98.17,1054.08,107.37,1054.39,107.43,1053.98L107.43,1053.98z"/>
		</g>
	</g>
	<g>
		<g>
			<path class="st1" d="M107.24,1046.58c0.32-1.46,0.64-2.92,0.95-4.38c0-0.01-3.41-0.08-2.94-0.07c-2.37-0.03-4.74-0.03-7.11-0.03
				c-2.37,0-4.74,0-7.11,0.03c-0.31,0-2.91-0.07-2.94,0.07c-0.32,1.46-0.64,2.92-0.95,4.38c0,0.01,3.41,0.08,2.94,0.07
				c2.37,0.03,4.74,0.03,7.11,0.03c2.37,0,4.74,0,7.11-0.03C104.61,1046.64,107.21,1046.72,107.24,1046.58L107.24,1046.58z"/>
		</g>
	</g>
	<g>
		<g>
			<path class="st1" d="M108.48,1053.95c0.36-2.46,0.71-4.91,1.07-7.37c-0.01,0.09-9.29-0.1-10.05-0.1c-0.78,0-9.99-0.28-10.05,0.1
				c-0.36,2.46-0.71,4.91-1.07,7.37c0.01-0.09,9.29,0.1,10.05,0.1C99.21,1054.05,108.42,1054.33,108.48,1053.95L108.48,1053.95z"/>
		</g>
	</g>
	<g>
		<g>
			<path class="st1" d="M171.36,1053.94c0.48-3.98,0.96-7.97,1.44-11.95c-0.01,0.06-9.29-0.1-10.05-0.1
				c-0.76,0-10.01-0.24-10.05,0.1c-0.48,3.98-0.96,7.97-1.44,11.95c0.01-0.06,9.29,0.1,10.05,0.1
				C162.07,1054.04,171.32,1054.28,171.36,1053.94L171.36,1053.94z"/>
		</g>
	</g>
	<g>
		<g>
			<path class="st1" d="M177.79,1054.06c0.13-4.18,0.25-8.36,0.38-12.54c0,0.05-20.09-0.35-20.1,0c-0.13,4.18-0.25,8.36-0.38,12.54
				C157.69,1054.01,177.78,1054.41,177.79,1054.06L177.79,1054.06z"/>
		</g>
	</g>
	<g>
		<g>
			<path class="st1" d="M168.6,1054.14c0.52-4.02,1.03-8.04,1.55-12.06c-0.01,0.07-9.29-0.1-10.05-0.1c-0.77,0-10-0.25-10.05,0.1
				c-0.52,4.02-1.03,8.04-1.55,12.06c0.01-0.07,9.29,0.1,10.05,0.1C159.32,1054.24,168.56,1054.5,168.6,1054.14L168.6,1054.14z"/>
		</g>
	</g>
	<g>
		<g>
			<path class="st1" d="M174.99,1050.93c0.02,0.44,0.04,0.89,0.06,1.33c0,0.06,3.4,0.08,2.94,0.07c2.37,0.03,4.74,0.03,7.11,0.03
				c0.73,0,10.05-0.06,10.05-0.1c-0.02-0.44-0.04-0.89-0.06-1.33c0-0.06-3.4-0.08-2.94-0.07c-2.37-0.03-4.74-0.03-7.11-0.03
				C184.31,1050.83,174.99,1050.89,174.99,1050.93L174.99,1050.93z"/>
		</g>
	</g>
	<g>
		<g>
			<path class="st1" d="M175.09,1050.07c0.01,0.6,0.02,1.2,0.04,1.79c0,0.15,9.3,0.1,10.05,0.1c0.73,0,10.05-0.02,10.05-0.1
				c-0.01-0.6-0.02-1.2-0.04-1.79c0-0.15-9.3-0.1-10.05-0.1C184.41,1049.97,175.09,1049.99,175.09,1050.07L175.09,1050.07z"/>
		</g>
	</g>
	<g>
		<g>
			<path class="st1" d="M195.27,1054.06c0.14-0.7,0.28-1.41,0.42-2.11c0-0.01-3.41-0.08-2.94-0.07c-2.37-0.03-4.74-0.03-7.11-0.03
				c-2.37,0-4.74,0-7.11,0.03c-0.31,0-2.92-0.07-2.94,0.07c-0.14,0.7-0.28,1.41-0.42,2.11c0,0.01,3.41,0.08,2.94,0.07
				c2.37,0.03,4.74,0.03,7.11,0.03c2.37,0,4.74,0,7.11-0.03C192.64,1054.13,195.25,1054.2,195.27,1054.06L195.27,1054.06z"/>
		</g>
	</g>
	<g>
		<g>
			<path class="st18" d="M128.94,1311.12c4.4,0.07,8.79-0.22,13.19-0.26c1.05-0.01,2.06-0.92,2.01-2.01
				c-0.05-1.08-0.88-2.02-2.01-2.01c-4.4,0.04-8.79,0.33-13.19,0.26c-1.05-0.02-2.06,0.94-2.01,2.01
				C126.98,1310.21,127.81,1311.1,128.94,1311.12L128.94,1311.12z"/>
		</g>
	</g>
	<g>
		<g>
			<path class="st18" d="M146.76,1306.24c-0.17-0.01-0.34-0.02-0.52,0c-0.33,0.02-0.67,0.07-1,0.14c-0.49,0.11-0.94,0.34-1.4,0.54
				c0.16-0.07,0.32-0.14,0.48-0.2c-0.11,0.04-0.21,0.08-0.33,0.1c0.18-0.02,0.36-0.05,0.53-0.07c-0.07,0.01-0.14,0.01-0.21,0
				c0.18,0.02,0.36,0.05,0.53,0.07c-0.01,0-0.03,0-0.04-0.01c-0.27-0.08-0.53-0.1-0.8-0.04c-0.27,0.01-0.52,0.09-0.75,0.24
				c-0.23,0.13-0.42,0.3-0.56,0.52c-0.18,0.19-0.3,0.42-0.36,0.68c-0.12,0.51-0.09,1.09,0.2,1.55c0.1,0.14,0.21,0.27,0.31,0.41
				c0.25,0.25,0.55,0.42,0.89,0.52c0.52,0.09,0.99,0.13,1.5-0.04c0.32-0.11,0.63-0.26,0.94-0.4c-0.16,0.07-0.32,0.14-0.48,0.2
				c0.28-0.12,0.57-0.2,0.86-0.24c-0.18,0.02-0.36,0.05-0.53,0.07c0.24-0.03,0.48-0.04,0.72-0.02c0.28,0.01,0.53-0.05,0.77-0.17
				c0.25-0.08,0.46-0.22,0.65-0.42c0.2-0.18,0.33-0.4,0.42-0.65c0.13-0.24,0.18-0.5,0.17-0.77c-0.02-0.52-0.19-1.06-0.59-1.42
				c-0.14-0.1-0.27-0.21-0.41-0.31C147.46,1306.34,147.12,1306.25,146.76,1306.24L146.76,1306.24z"/>
		</g>
	</g>
	<g>
		<g>
			<path class="st18" d="M123.44,1291.17c0.09,0.18,0.2,0.36,0.32,0.53c0.21,0.3,0.43,0.59,0.68,0.85c0.14,0.15,0.29,0.28,0.45,0.4
				c0.29,0.23,0.58,0.46,0.9,0.64c0.23,0.15,0.48,0.23,0.75,0.24c0.27,0.06,0.53,0.05,0.8-0.04c0.26-0.06,0.49-0.18,0.68-0.36
				c0.22-0.14,0.39-0.33,0.52-0.56c0.07-0.16,0.14-0.32,0.2-0.48c0.1-0.36,0.1-0.71,0-1.07c-0.07-0.16-0.14-0.32-0.2-0.48
				c-0.18-0.3-0.42-0.54-0.72-0.72c-0.17-0.1-0.34-0.2-0.49-0.32c0.14,0.1,0.27,0.21,0.41,0.31c-0.27-0.21-0.51-0.45-0.72-0.72
				c0.1,0.14,0.21,0.27,0.31,0.41c-0.16-0.21-0.3-0.43-0.41-0.66c-0.13-0.23-0.3-0.42-0.52-0.56c-0.19-0.18-0.42-0.3-0.68-0.36
				c-0.27-0.08-0.53-0.1-0.8-0.04c-0.27,0.01-0.52,0.09-0.75,0.24c-0.14,0.1-0.27,0.21-0.41,0.31c-0.25,0.25-0.42,0.55-0.52,0.89
				c-0.02,0.18-0.05,0.36-0.07,0.53C123.16,1290.51,123.26,1290.85,123.44,1291.17L123.44,1291.17z"/>
		</g>
	</g>
	<g>
		<g>
			<path class="st18" d="M190.9,1257.26c-2.71,6.38-9.11,10.22-14.32,14.37c-6.42,5.12-12.69,10.43-19.01,15.67
				c-1.99,1.65,0.86,4.48,2.84,2.84c6.44-5.34,12.83-10.77,19.39-15.97c5.39-4.28,11.77-8.3,14.57-14.88c0.42-1,0.3-2.15-0.72-2.75
				C192.81,1256.05,191.33,1256.26,190.9,1257.26L190.9,1257.26z"/>
		</g>
	</g>
	<g>
		<g>
			<path class="st18" d="M155.69,1290.44c-0.03,0.09-0.06,0.18-0.09,0.28c-0.08,0.26-0.04,0,0.04-0.08
				c-0.13,0.12-0.2,0.43-0.29,0.58c-0.18,0.34-0.39,0.67-0.61,0.99c-0.47,0.69-0.98,1.34-1.45,2.02c-1.05,1.52-1.89,3.37-1.73,5.26
				c1.34,0,2.68,0,4.02,0c-0.01-0.1-0.03-0.2-0.04-0.3c-0.07-0.55-0.18-1.01-0.59-1.42c-0.35-0.35-0.92-0.61-1.42-0.59
				c-0.98,0.04-2.15,0.89-2.01,2.01c0.01,0.1,0.03,0.2,0.04,0.3c0.07,0.55,0.18,1.01,0.59,1.42c0.35,0.35,0.92,0.61,1.42,0.59
				c1.01-0.05,2.11-0.89,2.01-2.01c-0.02-0.19-0.03-0.38-0.02-0.58c0-0.07,0.04-0.22,0.02-0.29c0.04,0.09-0.08,0.4-0.01,0.11
				c0.04-0.19,0.09-0.37,0.14-0.56c0.03-0.09,0.06-0.18,0.09-0.27c0.1-0.29,0.03,0.05-0.04,0.07c0.08-0.03,0.21-0.45,0.26-0.53
				c0.09-0.17,0.19-0.35,0.29-0.51c0.22-0.36,0.45-0.7,0.69-1.04c1.01-1.4,2.02-2.73,2.55-4.39c0.32-1-0.38-2.24-1.4-2.47
				C157.07,1288.78,156.03,1289.36,155.69,1290.44L155.69,1290.44z"/>
		</g>
	</g>
	<g>
		<g>
			<path class="st18" d="M158.7,1291.91c2.59,0,2.59-4.02,0-4.02C156.12,1287.89,156.11,1291.91,158.7,1291.91L158.7,1291.91z"/>
		</g>
	</g>
	<g>
		<g>
			<path class="st18" d="M193.07,1253.14c2.59,0,2.59-4.02,0-4.02C190.48,1249.12,190.47,1253.14,193.07,1253.14L193.07,1253.14z"/>
		</g>
	</g>
	<g>
		<g>
			<path class="st18" d="M89.1,1260.33c0.51,1.03,1.23,1.99,2.07,2.77c0.47,0.44,0.98,0.84,1.52,1.18c0.56,0.37,1.17,0.63,1.79,0.89
				c0.45,0.18,1.15,0.03,1.55-0.2c0.42-0.24,0.81-0.72,0.92-1.2c0.12-0.51,0.09-1.09-0.2-1.55c-0.1-0.14-0.21-0.27-0.31-0.41
				c-0.25-0.25-0.55-0.42-0.89-0.52c-0.02-0.01-0.04-0.02-0.06-0.02c0.16,0.07,0.32,0.14,0.48,0.2c-0.63-0.27-1.23-0.62-1.78-1.03
				c0.14,0.1,0.27,0.21,0.41,0.31c-0.56-0.43-1.06-0.94-1.5-1.5c0.1,0.14,0.21,0.27,0.31,0.41c-0.33-0.43-0.61-0.88-0.85-1.37
				c-0.21-0.43-0.75-0.8-1.2-0.92c-0.48-0.13-1.12-0.07-1.55,0.2c-0.43,0.28-0.81,0.69-0.92,1.2
				C88.77,1259.33,88.85,1259.83,89.1,1260.33L89.1,1260.33z"/>
		</g>
	</g>
	<g>
		<g>
			<path class="st18" d="M94.58,1265.39c2.59,0,2.59-4.02,0-4.02C91.99,1261.37,91.98,1265.39,94.58,1265.39L94.58,1265.39z"/>
		</g>
	</g>
	<g>
		<g>
			<path class="st18" d="M94.48,1265.39c2.59,0,2.59-4.02,0-4.02C91.89,1261.37,91.89,1265.39,94.48,1265.39L94.48,1265.39z"/>
		</g>
	</g>
	<g>
		<g>
			<path class="st18" d="M95.9,1261.96c-0.03-0.03-0.06-0.06-0.1-0.1c-0.18-0.2-0.4-0.33-0.65-0.42c-0.24-0.13-0.5-0.18-0.77-0.17
				c-0.28-0.01-0.53,0.05-0.77,0.17c-0.25,0.08-0.46,0.22-0.65,0.42c-0.1,0.14-0.21,0.27-0.31,0.41c-0.18,0.31-0.27,0.65-0.27,1.01
				c0.02,0.18,0.05,0.36,0.07,0.53c0.1,0.34,0.27,0.64,0.52,0.89c0.03,0.03,0.06,0.06,0.1,0.1c0.18,0.2,0.4,0.33,0.65,0.42
				c0.24,0.13,0.5,0.18,0.77,0.17c0.28,0.01,0.53-0.05,0.77-0.17c0.25-0.08,0.46-0.22,0.65-0.42c0.1-0.14,0.21-0.27,0.31-0.41
				c0.18-0.31,0.27-0.65,0.27-1.01c-0.02-0.18-0.05-0.36-0.07-0.53C96.32,1262.51,96.15,1262.21,95.9,1261.96L95.9,1261.96z"/>
		</g>
	</g>
	<g>
		<g>
			<path class="st18" d="M93.52,1264.72c2.59,0,2.59-4.02,0-4.02C90.94,1260.7,90.93,1264.72,93.52,1264.72L93.52,1264.72z"/>
		</g>
	</g>
	<g>
		<g>
			<path class="st18" d="M89.6,1248.45c2.59,0,2.59-4.02,0-4.02C87.01,1244.43,87.01,1248.45,89.6,1248.45L89.6,1248.45z"/>
		</g>
	</g>
	<line class="st22" x1="89.22" y1="1053.48" x2="103.96" y2="1053.48"/>
	<line class="st22" x1="117.36" y1="1053.48" x2="102.62" y2="1053.48"/>
	<line class="st22" x1="89.22" y1="1053.48" x2="91.9" y2="1053.48"/>
	<line class="st22" x1="90.56" y1="1053.48" x2="89.22" y2="1053.48"/>
	<g>
		<g>
			<path class="st1" d="M108.74,1054.05c0.03-0.21,0.06-0.43,0.09-0.64c0-0.03-3.41-0.08-2.94-0.07c-2.37-0.03-4.74-0.03-7.11-0.03
				c-2.37,0-4.74,0-7.11,0.03c-0.52,0.01-1.05,0.01-1.57,0.02c-0.46-0.01-0.92,0.01-1.37,0.05c-0.03,0.21-0.06,0.43-0.09,0.64
				c0,0.03,3.41,0.08,2.94,0.07c2.37,0.03,4.74,0.03,7.11,0.03c2.37,0,4.74,0,7.11-0.03c0.52-0.01,1.05-0.01,1.57-0.02
				C107.83,1054.11,108.29,1054.09,108.74,1054.05L108.74,1054.05z"/>
		</g>
	</g>
	<g>
		<g>
			<path class="st1" d="M107.93,1054.13c0.19-0.36,0.38-0.72,0.57-1.08c-0.29-0.03-0.58-0.04-0.87-0.04
				c-0.69-0.02-1.39-0.03-2.08-0.03c-2.37-0.03-4.74-0.03-7.11-0.03c-2.37,0-4.74,0-7.11,0.03c-0.52,0.01-1.05,0.01-1.57,0.02
				c-0.46-0.01-0.92,0.01-1.37,0.05c-0.19,0.36-0.38,0.72-0.57,1.08c0.29,0.03,0.58,0.04,0.87,0.04c0.69,0.02,1.39,0.03,2.08,0.03
				c2.37,0.03,4.74,0.03,7.11,0.03c2.37,0,4.74,0,7.11-0.03c0.52-0.01,1.05-0.01,1.57-0.02
				C107.01,1054.18,107.47,1054.17,107.93,1054.13L107.93,1054.13z"/>
		</g>
	</g>
	<g>
		<g>
			<path class="st18" d="M147.71,1310.48c10.27,0,10.28-15.95,0-15.95C137.45,1294.52,137.43,1310.48,147.71,1310.48L147.71,1310.48
				z"/>
		</g>
	</g>
	<g>
		<g>
			<path class="st18" d="M154.86,1305.03c-0.71,0.05-1.44,0.21-2.03,0.63c-0.28,0.2-0.57,0.41-0.79,0.68
				c-0.23,0.28-0.42,0.59-0.64,0.88c0.1-0.14,0.21-0.27,0.31-0.41c-0.06,0.07-0.11,0.12-0.18,0.18c0.14-0.1,0.27-0.21,0.41-0.31
				c-0.07,0.05-0.14,0.09-0.21,0.12c0.16-0.07,0.32-0.14,0.48-0.2c-0.12,0.05-0.24,0.07-0.36,0.09c0.18-0.02,0.36-0.05,0.53-0.07
				c-0.3,0.04-0.6,0.01-0.91,0.02c-0.63,0.02-1.21,0.14-1.77,0.46c-0.74,0.42-1.19,1.44-0.92,2.27c0.11,0.33,0.28,0.63,0.52,0.89
				c0.3,0.33,0.96,0.64,1.42,0.59c0.67-0.08,1.34,0.08,2.01,0.07c0.44,0,0.89-0.05,1.31-0.17c0.6-0.17,1.03-0.46,1.51-0.84
				c0.38-0.3,0.59-0.96,0.59-1.42c0-0.49-0.22-1.08-0.59-1.42c-0.38-0.35-0.89-0.61-1.42-0.59c-0.18,0.02-0.36,0.05-0.53,0.07
				c-0.34,0.1-0.64,0.27-0.89,0.52c-0.02,0.01-0.03,0.03-0.05,0.04c0.14-0.1,0.27-0.21,0.41-0.31c-0.1,0.08-0.21,0.14-0.33,0.19
				c0.16-0.07,0.32-0.14,0.48-0.2c-0.18,0.07-0.37,0.12-0.56,0.15c0.18-0.02,0.36-0.05,0.53-0.07c-0.82,0.11-1.64-0.14-2.47-0.04
				c0.34,1.25,0.68,2.5,1.01,3.75c0.04-0.02,0.08-0.04,0.12-0.06c-0.16,0.07-0.32,0.14-0.48,0.2c0.12-0.05,0.24-0.08,0.37-0.1
				c-0.18,0.02-0.36,0.05-0.53,0.07c0.24-0.03,0.48-0.02,0.73-0.02c0.4,0,0.81-0.03,1.19-0.14c0.5-0.14,1-0.41,1.36-0.79
				c0.28-0.29,0.47-0.64,0.71-0.95c-0.1,0.14-0.21,0.27-0.31,0.41c0.09-0.11,0.19-0.22,0.31-0.31c-0.14,0.1-0.27,0.21-0.41,0.31
				c0.13-0.1,0.27-0.19,0.43-0.26c-0.16,0.07-0.32,0.14-0.48,0.2c0.17-0.07,0.35-0.12,0.54-0.15c-0.18,0.02-0.36,0.05-0.53,0.07
				c0.04,0,0.08-0.01,0.12-0.01c0.54-0.04,1.03-0.2,1.42-0.59c0.35-0.35,0.61-0.92,0.59-1.42c-0.02-0.52-0.19-1.06-0.59-1.42
				C155.9,1305.27,155.39,1304.99,154.86,1305.03L154.86,1305.03z"/>
		</g>
	</g>
</g>
<g id="Layer_4">
	<path class="st23" d="M156.31,1306.12L156.31,1306.12c-1.63-5.62,0.18-11.68,4.63-15.49l29.58-25.29
		c2.95-2.52,4.65-6.21,4.65-10.09v-13.22c0-3.09-1.08-6.08-3.06-8.46l-2.7-3.24c-4.93-5.92-7.64-13.39-7.64-21.09v-126.28
		c0-5.92,2.21-11.62,6.19-16l1.87-2.06c3.44-3.78,5.34-8.71,5.34-13.82v-9.77c0-4.93-2.1-9.63-5.77-12.92l-29.33-26.3
		c-2.39-2.15-3.76-5.21-3.76-8.43l0,0c0-4.61-3.74-8.35-8.35-8.35h-12.18c-4.94,0-8.95,4.01-8.95,8.95l0,0
		c0,2.83-1.2,5.53-3.31,7.42l-29.8,26.71c-3.66,3.28-5.75,7.96-5.75,12.88v9.06c0,5.58,2.08,10.97,5.84,15.1l4.48,4.93
		c1.98,2.18,3.08,5.02,3.08,7.97v126.42c0,10.6-3.72,20.86-10.5,29l-0.59,0.71c-1.49,1.79-2.31,4.04-2.31,6.37v16.44
		c0,2.59,1.13,5.04,3.1,6.72l31.27,26.73c4.36,3.73,6.12,9.67,4.49,15.17h0c-0.82,2.76,0.87,5.03,3.75,5.03h22.1
		C155.45,1310.95,157.08,1308.78,156.31,1306.12z"/>
	<g id="XMLID_2_">
		<g>
		</g>
		<g>
			<line class="st22" x1="89.88" y1="1051.66" x2="193.83" y2="1051.66"/>
		</g>
	</g>
</g>
</svg>
